<?xml version="1.0" encoding="UTF-8"?>
<svg version="1.1" xmlns="http://www.w3.org/2000/svg" width="1024" height="1024">
<path d="M0 0 C337.92 0 675.84 0 1024 0 C1024 337.92 1024 675.84 1024 1024 C686.08 1024 348.16 1024 0 1024 C0 686.08 0 348.16 0 0 Z " fill="#FEFEFE" transform="translate(0,0)"/>
<path d="M0 0 C9.91864871 5.79501161 16.41264617 13.32457826 21.578125 23.46484375 C22.06091919 24.41218384 22.06091919 24.41218384 22.5534668 25.37866211 C27.14124126 34.95098497 28.74322626 44.27517102 28.640625 54.83984375 C28.62926514 56.48895752 28.62926514 56.48895752 28.61767578 58.17138672 C28.44648806 66.62955977 27.32750995 73.61874436 24.203125 81.52734375 C23.790625 82.69523437 23.378125 83.863125 22.953125 85.06640625 C15.94713125 103.97462802 4.70776623 120.25878105 -7.35546875 136.25390625 C-19.94739309 152.9963076 -31.09807265 168.73594134 -30.859375 190.40234375 C-30.85486328 191.18609375 -30.85035156 191.96984375 -30.84570312 192.77734375 C-30.83401593 194.69404389 -30.81608408 196.61070423 -30.796875 198.52734375 C-30.46816406 197.8003125 -30.13945312 197.07328125 -29.80078125 196.32421875 C-20.59002134 176.85431975 -6.77934027 162.44745911 13.35546875 154.5234375 C17.27004527 153.15414119 21.10928994 152.17334341 25.203125 151.52734375 C25.89535156 151.41648437 26.58757812 151.305625 27.30078125 151.19140625 C50.99081906 148.00980408 74.44612734 154.41074544 93.7421875 168.36328125 C96.29596107 170.34954958 98.75497002 172.41234748 101.203125 174.52734375 C102.14929688 175.32785156 103.09546875 176.12835938 104.0703125 176.953125 C133.3280926 202.60117898 155.03669041 245.96111095 159.015625 284.71484375 C159.1084375 286.60203125 159.1084375 286.60203125 159.203125 288.52734375 C155.20501931 287.94545982 152.92213744 285.90298394 149.828125 283.40234375 C138.65016875 274.70256047 126.06803171 268.16655549 111.5703125 269.734375 C100.94845549 272.23581 91.25255494 278.93008879 82.1328125 284.6953125 C78.23972406 287.12979047 74.24650869 289.35415562 70.203125 291.52734375 C71.62223938 293.18874596 73.04262831 294.84907114 74.46826172 296.50488281 C75.50936632 297.71857695 76.54436218 298.93761029 77.56689453 300.16699219 C84.34099847 308.1651129 92.00589899 315.36172476 99.47387695 322.70214844 C101.36326951 324.56137722 103.24642239 326.42674889 105.12890625 328.29296875 C105.99918205 329.14305511 105.99918205 329.14305511 106.88703918 330.01031494 C110.85933696 333.95765825 113.12306537 336.32570383 113.328125 341.96484375 C111.7224677 347.04942519 108.75631879 348.07470304 104.203125 350.52734375 C100.09972168 352.58086752 95.94042694 354.49888207 91.765625 356.40234375 C90.55352031 356.95979076 89.34161084 357.51766244 88.12988281 358.07592773 C81.19982962 361.26342926 74.25363105 364.41563004 67.30859375 367.5703125 C66.56899918 367.90629456 65.8294046 368.24227661 65.06739807 368.58843994 C61.45345849 370.22955332 57.83838252 371.86807038 54.22094727 373.50146484 C52.88678836 374.10493733 51.55271958 374.70860913 50.21875 375.3125 C49.58952133 375.59687927 48.96029266 375.88125854 48.31199646 376.17425537 C44.97559466 377.69068199 41.6902808 379.273132 38.4375 380.9609375 C35.203125 382.52734375 35.203125 382.52734375 32.203125 382.52734375 C32.203125 422.12734375 32.203125 461.72734375 32.203125 502.52734375 C44.083125 498.56734375 44.083125 498.56734375 56.203125 494.52734375 C64.23046875 491.91015625 64.23046875 491.91015625 67.71264648 490.77514648 C79.73921173 486.835956 91.55987524 482.58844594 103.22436523 477.66259766 C108.27901174 475.55438902 112.7286314 473.96134394 118.203125 473.52734375 C118.15671875 472.48578125 118.1103125 471.44421875 118.0625 470.37109375 C117.22040033 443.27398512 128.96899971 420.17137902 147.16015625 400.66015625 C147.83433594 399.95632813 148.50851562 399.2525 149.203125 398.52734375 C150.10611328 397.56441406 150.10611328 397.56441406 151.02734375 396.58203125 C152.37129806 395.18275679 153.78016018 393.8461892 155.203125 392.52734375 C155.863125 392.52734375 156.523125 392.52734375 157.203125 392.52734375 C161.83332694 412.15939999 156.35493062 435.08855831 145.984375 451.91796875 C143.61842758 455.38387419 141.06292851 458.45828633 138.203125 461.52734375 C144.68065443 458.17880658 150.38541021 454.321093 156.078125 449.77734375 C157.24504883 448.85743652 157.24504883 448.85743652 158.43554688 447.91894531 C168.64696004 440.09464386 168.64696004 440.09464386 178.203125 431.52734375 C178.26184448 429.34916785 178.26184448 429.34916785 177.890625 426.90234375 C177.79136719 426.08507812 177.69210937 425.2678125 177.58984375 424.42578125 C177.29899275 422.24586771 176.99461199 420.0677527 176.68359375 417.890625 C173.58560453 392.70429809 177.78346446 366.1749029 193.203125 345.52734375 C195.9135082 348.76870846 197.34256818 352.02310555 198.828125 355.96484375 C199.25351562 357.07730469 199.67890625 358.18976563 200.1171875 359.3359375 C202.57408423 366.55638582 202.42166048 373.52655928 202.453125 381.08984375 C202.47375 382.30220703 202.494375 383.51457031 202.515625 384.76367188 C202.55014628 392.81144489 201.49122313 399.82562942 199.203125 407.52734375 C198.86275093 408.85889712 198.52654523 410.19157122 198.203125 411.52734375 C205.80796211 402.24561799 212.72872527 392.6844023 219.01123047 382.45361328 C219.8071534 381.16728966 220.62952942 379.89697126 221.47705078 378.64404297 C222.82231148 376.6483634 222.82231148 376.6483634 224.203125 373.52734375 C223.7680566 370.97341191 223.7680566 370.97341191 222.203125 368.52734375 C221.64863868 367.27176699 221.10961035 366.00930564 220.58203125 364.7421875 C220.2876416 364.05237793 219.99325195 363.36256836 219.68994141 362.65185547 C210.27919019 340.38521273 206.37725362 312.81355645 215.3046875 289.671875 C215.60117187 288.96417969 215.89765625 288.25648438 216.203125 287.52734375 C227.95289048 296.05408328 233.6756556 312.75549056 236.203125 326.52734375 C236.55570129 330.19090694 236.70638131 333.84966968 236.828125 337.52734375 C236.86679687 338.49285156 236.90546875 339.45835937 236.9453125 340.453125 C237.03869441 342.81101815 237.12446829 345.16892131 237.203125 347.52734375 C241.47089756 337.34534829 245.52279566 327.15017945 248.765625 316.58984375 C249.16031982 315.34025879 249.16031982 315.34025879 249.56298828 314.06542969 C251.313484 308.31852172 251.313484 308.31852172 250.203125 302.52734375 C248.90929281 300.93723669 248.90929281 300.93723669 247.203125 299.58984375 C232.58203895 285.71778875 221.76659506 260.1988029 221.12890625 240.19970703 C221.10523241 237.66216692 221.11553937 235.12735187 221.140625 232.58984375 C221.14513672 231.71521484 221.14964844 230.84058594 221.15429688 229.93945312 C221.16597666 227.80205328 221.18390811 225.66468912 221.203125 223.52734375 C225.65039264 224.96089522 228.7143632 227.38718617 232.078125 230.52734375 C232.60623779 231.02008789 233.13435059 231.51283203 233.6784668 232.02050781 C244.97325907 242.82829124 251.88924282 257.3466073 255.203125 272.52734375 C257.07017394 270.66029481 256.68774042 267.54615041 256.921875 265.03515625 C256.98467651 264.37458221 257.04747803 263.71400818 257.11218262 263.03341675 C257.31334887 260.90676191 257.50829602 258.77958759 257.703125 256.65234375 C257.83423073 255.25647235 257.96573663 253.86063847 258.09765625 252.46484375 C258.81748878 244.82068237 259.51293587 237.17423327 260.203125 229.52734375 C259.06000854 229.09736084 259.06000854 229.09736084 257.89379883 228.65869141 C254.49379168 227.22909036 251.76902291 225.16257931 248.890625 222.90234375 C248.31594482 222.45286377 247.74126465 222.00338379 247.14916992 221.5402832 C228.95461795 207.10906195 210.55011382 182.72967711 207.55078125 159.0625 C207.43605469 157.89589844 207.32132813 156.72929687 207.203125 155.52734375 C222.47893039 157.419513 233.86156232 168.06230646 243.453125 179.27734375 C248.69406672 186.08946925 252.37407012 193.869234 256.203125 201.52734375 C256.03184082 200.56546143 255.86055664 199.6035791 255.68408203 198.61254883 C255.03770413 194.9803311 254.39333337 191.34775951 253.74951172 187.71508789 C253.47269961 186.15477213 253.19537186 184.59454773 252.91748047 183.03442383 C251.22810498 173.54769614 249.61164918 164.06059647 248.203125 154.52734375 C247.28418457 154.23093994 246.36524414 153.93453613 245.41845703 153.62915039 C219.18327606 144.63906902 196.20632112 121.35218473 183.45703125 97.22265625 C180.203125 90.27238624 180.203125 90.27238624 180.203125 86.52734375 C198.2235856 87.42836678 214.25828908 98.62317723 226.203125 111.52734375 C229.44550975 115.35637024 232.33835172 119.41000727 235.203125 123.52734375 C236.199646 124.86327926 237.19905826 126.19707018 238.203125 127.52734375 C233.09533876 115.66893412 227.98673952 103.8292716 222.3828125 92.1953125 C221.203125 89.52734375 221.203125 89.52734375 221.203125 87.52734375 C220.48769531 87.28242188 219.77226563 87.0375 219.03515625 86.78515625 C213.71416391 84.42190172 209.56329175 80.32173428 205.203125 76.52734375 C204.12611328 75.59728516 204.12611328 75.59728516 203.02734375 74.6484375 C189.77351767 62.35079927 180.41099458 42.49053243 179.203125 24.52734375 C179.13033635 20.85879574 179.14243092 17.19596367 179.203125 13.52734375 C197.41300205 20.40663064 211.78623548 35.04028383 220.12890625 52.46044922 C223.88260432 60.79671811 227.00243368 69.23543056 227.3515625 78.44140625 C228.09257196 85.23364507 231.46789473 91.01130289 234.515625 97.02734375 C235.67949201 99.37054443 236.84227558 101.71428361 238.00390625 104.05859375 C238.55385254 105.16460937 239.10379883 106.270625 239.67041016 107.41015625 C245.203125 118.66241861 245.203125 118.66241861 245.203125 122.52734375 C245.533125 122.19734375 245.863125 121.86734375 246.203125 121.52734375 C245.88696605 119.85733405 245.55036322 118.19116901 245.203125 116.52734375 C244.10822719 99.6178083 245.0031741 84.23768191 254.203125 69.52734375 C255.688125 68.53734375 255.688125 68.53734375 257.203125 67.52734375 C268.27745296 89.73668092 271.83027356 112.04945471 264.03125 136.1484375 C260.75004232 145.07048678 260.75004232 145.07048678 257.828125 148.90234375 C255.57954749 152.53466127 256.39554056 154.37526042 257.203125 158.52734375 C257.94215622 161.20873584 258.71201604 163.86597461 259.515625 166.52734375 C262.67242048 177.35361488 264.449105 188.4021855 266.203125 199.52734375 C266.26781982 198.96974365 266.33251465 198.41214355 266.39916992 197.83764648 C268.72020206 178.44258396 272.18756061 160.87435976 286.72265625 146.671875 C288.203125 145.52734375 288.203125 145.52734375 290.203125 145.52734375 C295.04658619 169.34102795 294.47854835 193.94271965 280.94921875 215.1328125 C272.45959052 226.77518858 272.45959052 226.77518858 267.203125 228.52734375 C267.36425781 229.43742188 267.52539062 230.3475 267.69140625 231.28515625 C268.45036099 236.63948116 268.39388906 242.00398957 268.390625 247.40234375 C268.39126953 248.50118896 268.39191406 249.60003418 268.39257812 250.73217773 C268.33447609 259.78090987 267.57984135 268.5909796 266.203125 277.52734375 C266.51165405 276.71281738 266.51165405 276.71281738 266.82641602 275.88183594 C273.5592576 258.23869242 280.92605948 240.61125027 297.203125 229.52734375 C300.640625 228.15234375 300.640625 228.15234375 303.203125 227.52734375 C304.31758861 250.55959176 296.50376052 274.26894975 281.203125 291.52734375 C280.67203125 292.15253906 280.1409375 292.77773438 279.59375 293.421875 C276.92025484 296.35345508 274.75262839 298.28082469 271.0859375 299.92578125 C264.36503618 303.02989908 264.36503618 303.02989908 260.15820312 308.79443359 C258.62240344 313.5516884 257.63052683 318.40372755 256.61328125 323.29296875 C255.2894969 329.61143609 253.20290029 335.47279252 250.828125 341.46484375 C250.28998169 342.83225708 250.28998169 342.83225708 249.7409668 344.22729492 C248.90522304 346.3316695 248.06027427 348.43161707 247.203125 350.52734375 C247.56954102 350.02525391 247.93595703 349.52316406 248.31347656 349.00585938 C259.26550916 334.17483629 273.68694817 317.66246167 292.625 313.8359375 C293.47578125 313.73410156 294.3265625 313.63226563 295.203125 313.52734375 C293.84303535 329.27038145 285.29993743 342.83982289 275.203125 354.52734375 C274.64238281 355.20023437 274.08164062 355.873125 273.50390625 356.56640625 C266.0249007 364.8178028 252.7593153 373.57665594 241.49609375 374.828125 C237.58961835 375.36902159 234.52529512 375.92999107 231.90576172 379.09472656 C229.10374367 383.31015195 226.81352762 387.80696828 224.45458984 392.27929688 C222.53303224 395.73105309 220.28592585 398.90667528 217.953125 402.08984375 C217.53748291 402.66017334 217.12184082 403.23050293 216.69360352 403.81811523 C215.53760279 405.39338362 214.37065761 406.96060326 213.203125 408.52734375 C212.23246094 409.83638672 212.23246094 409.83638672 211.2421875 411.171875 C209.90514405 412.9640154 208.55605822 414.74716846 207.203125 416.52734375 C207.88375 415.97046875 208.564375 415.41359375 209.265625 414.83984375 C225.09606401 402.37758325 242.63986931 394.27898421 263.203125 395.52734375 C254.64338379 414.25473336 236.22487535 427.36547334 217.4765625 434.44921875 C211.00982477 436.57907509 205.8618364 437.64939628 199.10107422 437.44628906 C190.87005071 437.30291919 185.18031033 438.01280722 179.078125 443.77734375 C177.39725003 445.42904298 175.73492866 447.09759066 174.07666016 448.77197266 C170.58990641 452.03881647 166.66601822 454.71862424 162.765625 457.46484375 C162.01974121 457.99561523 161.27385742 458.52638672 160.50537109 459.07324219 C159.08637669 460.08129887 157.66555479 461.0867894 156.24267578 462.08935547 C153.21922668 464.22104271 150.21181048 466.37488497 147.203125 468.52734375 C148.23050781 468.18960937 149.25789063 467.851875 150.31640625 467.50390625 C170.88586599 460.83023715 190.30427015 458.90592439 211.203125 465.52734375 C207.38883954 474.83988112 193.83087268 479.82842639 185.203125 483.52734375 C166.96263581 490.04113327 146.67584627 491.33628027 128.62890625 483.39453125 C124.12599237 481.78479392 121.11497535 482.15343417 116.70703125 483.9609375 C115.38904289 484.62060775 114.07549299 485.28919294 112.765625 485.96484375 C95.48761454 494.44404356 77.35542139 500.6292737 59.08203125 506.58203125 C54.4032872 508.11048572 49.79410621 509.75342877 45.203125 511.52734375 C45.82243896 511.85420166 46.44175293 512.18105957 47.07983398 512.51782227 C49.93824039 514.0329455 52.78938182 515.56128591 55.640625 517.08984375 C57.10145508 517.86038086 57.10145508 517.86038086 58.59179688 518.64648438 C75.01108389 527.48763892 75.01108389 527.48763892 77.453125 533.71484375 C77.15566167 537.06130616 76.78838543 538.35906081 74.203125 540.52734375 C68.10529899 541.53440895 64.37974759 538.54928326 59.515625 535.33984375 C52.95349982 531.16630551 46.49578159 527.31642268 39.203125 524.52734375 C38.26082031 524.16640625 37.31851563 523.80546875 36.34765625 523.43359375 C22.6566406 519.48786005 10.73935277 524.40273957 -1.15649414 530.95141602 C-5.34920273 533.30386652 -9.50196839 535.7091235 -13.56640625 538.27734375 C-16.4962617 539.91929427 -18.49426073 539.96769232 -21.796875 539.52734375 C-24.17046194 535.96696334 -24.53646881 534.71837536 -23.796875 530.52734375 C-19.08332708 525.04995153 -12.27128864 521.71328915 -6.046875 518.27734375 C-4.17665027 517.23124261 -2.30684 516.18440006 -0.4375 515.13671875 C0.79178223 514.45561035 0.79178223 514.45561035 2.04589844 513.76074219 C3.80732508 512.75364311 5.51488852 511.65283474 7.203125 510.52734375 C6.2330249 510.21619629 5.2629248 509.90504883 4.26342773 509.58447266 C-38.87826224 495.69891134 -38.87826224 495.69891134 -55.5390625 486.50390625 C-57.08980469 485.64925781 -57.08980469 485.64925781 -58.671875 484.77734375 C-59.47367187 484.2875 -60.27546875 483.79765625 -61.1015625 483.29296875 C-65.27548049 482.10733408 -68.6973953 483.38605944 -72.796875 484.52734375 C-74.23702514 484.8891517 -75.67842099 485.2460418 -77.12109375 485.59765625 C-77.83209229 485.77224365 -78.54309082 485.94683105 -79.27563477 486.12670898 C-100.23300202 491.11413152 -121.11295713 488.28790453 -139.96484375 477.7578125 C-144.89802022 474.70203922 -149.46750599 471.38867287 -153.796875 467.52734375 C-152.796875 465.52734375 -152.796875 465.52734375 -149.796875 464.45703125 C-129.64692126 458.87641044 -110.33901342 461.60179201 -90.796875 468.52734375 C-91.52837769 468.00732788 -91.52837769 468.00732788 -92.2746582 467.47680664 C-105.9994402 457.69925319 -119.31928665 447.95954776 -130.796875 435.52734375 C-130.796875 435.19734375 -130.796875 434.86734375 -130.796875 434.52734375 C-128.486875 434.52734375 -126.176875 434.52734375 -123.796875 434.52734375 C-123.466875 433.53734375 -123.136875 432.54734375 -122.796875 431.52734375 C-121.80171875 432.37554688 -120.8065625 433.22375 -119.78125 434.09765625 C-111.73815418 440.87689269 -103.54395749 447.30879628 -94.921875 453.33984375 C-94.06045898 453.94393066 -93.19904297 454.54801758 -92.31152344 455.17041016 C-87.80562488 458.33288938 -87.80562488 458.33288938 -82.796875 460.52734375 C-83.68439453 459.20283203 -83.68439453 459.20283203 -84.58984375 457.8515625 C-97.41826665 438.47049193 -103.08656769 418.92176928 -101.796875 395.52734375 C-101.466875 394.53734375 -101.136875 393.54734375 -100.796875 392.52734375 C-84.03114287 400.35870547 -72.73123301 420.93840227 -66.203125 437.421875 C-63.08850669 445.99766745 -62.0276393 454.52182617 -61.51586914 463.61035156 C-61.46164795 464.4659668 -61.40742676 465.32158203 -61.3515625 466.203125 C-61.31530762 466.96536377 -61.27905273 467.72760254 -61.24169922 468.51293945 C-60.66182285 471.13893281 -59.93926867 471.90300644 -57.796875 473.52734375 C-55.78784174 474.51886096 -53.73580203 475.42457396 -51.6640625 476.27734375 C-51.04722092 476.53202423 -50.43037933 476.78670471 -49.79484558 477.04910278 C-47.75768572 477.88495876 -45.71539291 478.70716455 -43.671875 479.52734375 C-42.97190399 479.81091736 -42.27193298 480.09449097 -41.55075073 480.38665771 C-26.7011404 486.38758383 -11.58830854 491.50065705 3.65991211 496.38330078 C7.85024633 497.73628818 12.02574207 499.13488277 16.203125 500.52734375 C15.873125 464.55734375 15.543125 428.58734375 15.203125 391.52734375 C5.81067416 396.22356917 0.21012818 399.14490366 -3.09765625 408.97265625 C-3.84772312 411.71312403 -4.48345434 414.47347563 -5.12084961 417.24194336 C-9.39392694 435.59204504 -9.39392694 435.59204504 -16.796875 440.52734375 C-18.76309172 438.56112703 -18.00803424 434.77815863 -18.03515625 432.08984375 C-18.043228 431.33574219 -18.05129974 430.58164062 -18.05961609 429.8046875 C-18.07348094 428.2007071 -18.0841923 426.5966969 -18.09204102 424.99267578 C-18.10911139 422.5648362 -18.15295423 420.13840992 -18.19726562 417.7109375 C-18.27981763 409.51784971 -18.27805372 402.69089588 -13.796875 395.52734375 C-13.14525391 394.25697266 -13.14525391 394.25697266 -12.48046875 392.9609375 C-6.38819188 383.20183569 3.57679462 377.42553902 14.203125 373.52734375 C14.863125 373.52734375 15.523125 373.52734375 16.203125 373.52734375 C15.873125 347.45734375 15.543125 321.38734375 15.203125 294.52734375 C8.933125 292.21734375 2.663125 289.90734375 -3.796875 287.52734375 C-9.2291898 284.97580195 -14.54689794 282.40960528 -19.796875 279.52734375 C-20.74771973 279.00551514 -20.74771973 279.00551514 -21.71777344 278.47314453 C-31.47623258 273.03657308 -40.19742729 266.63464985 -48.796875 259.52734375 C-49.5866272 258.89203735 -49.5866272 258.89203735 -50.39233398 258.24389648 C-62.71126805 248.24114555 -70.01259288 233.99090811 -72.796875 218.52734375 C-73.18093883 214.18255961 -73.21847148 209.88670371 -73.171875 205.52734375 C-73.18347656 204.44195312 -73.19507813 203.3565625 -73.20703125 202.23828125 C-73.12880697 180.38763127 -62.76140487 161.71053725 -48.796875 145.52734375 C-47.85570552 144.41365984 -46.91564759 143.29903584 -45.9765625 142.18359375 C-41.02928216 136.3320596 -35.98098894 130.61198199 -30.734375 125.02734375 C-13.8859012 106.98089028 4.5089476 83.787352 5.703125 58.15234375 C5.35529595 51.39772795 2.85783415 45.75694338 -1.984375 41.02734375 C-5.92535254 37.92596577 -9.89411609 37.54957848 -14.796875 37.52734375 C-15.003125 38.20796875 -15.209375 38.88859375 -15.421875 39.58984375 C-19.15256092 47.55994549 -24.81987757 51.23544527 -32.796875 54.52734375 C-34.23185988 55.0139908 -35.66917571 55.4938523 -37.109375 55.96484375 C-42.61482845 57.95169086 -45.03358493 61.97350326 -47.546875 67.08984375 C-49.66190127 72.906166 -49.95745043 78.09205859 -49.921875 84.21484375 C-49.91994141 85.01196777 -49.91800781 85.8090918 -49.91601562 86.63037109 C-49.87436516 92.31913098 -49.52546078 97.88080397 -48.796875 103.52734375 C-56.66029032 102.44940632 -62.67488198 96.34252624 -67.51953125 90.34375 C-74.2041786 80.83805882 -76.2902709 70.24927776 -74.33203125 58.8125 C-72.19475052 50.60483614 -67.73199052 44.42271941 -60.796875 39.52734375 C-60.95285156 39.00140625 -61.10882813 38.47546875 -61.26953125 37.93359375 C-63.28497523 28.73719753 -62.33420637 20.38442421 -57.69140625 12.21875 C-44.33578103 -6.75449902 -19.66184191 -10.35267374 0 0 Z " fill="#FE697B" transform="translate(483.796875,133.47265625)"/>
<path d="M0 0 C18.20987705 6.87928689 32.58311048 21.51294008 40.92578125 38.93310547 C44.67947932 47.26937436 47.79930868 55.70808681 48.1484375 64.9140625 C48.88944696 71.70630132 52.26476973 77.48395914 55.3125 83.5 C56.47636701 85.84320068 57.63915058 88.18693986 58.80078125 90.53125 C59.35072754 91.63726562 59.90067383 92.74328125 60.46728516 93.8828125 C66 105.13507486 66 105.13507486 66 109 C66.33 108.67 66.66 108.34 67 108 C66.68384105 106.3299903 66.34723822 104.66382526 66 103 C64.90510219 86.09046455 65.8000491 70.71033816 75 56 C75.99 55.34 76.98 54.68 78 54 C89.07432796 76.20933717 92.62714856 98.52211096 84.828125 122.62109375 C81.54691732 131.54314303 81.54691732 131.54314303 78.625 135.375 C76.37642249 139.00731752 77.19241556 140.84791667 78 145 C78.73903122 147.68139209 79.50889104 150.33863086 80.3125 153 C83.46929548 163.82627113 85.24598 174.87484175 87 186 C87.06469482 185.4423999 87.12938965 184.8847998 87.19604492 184.31030273 C89.51707706 164.91524021 92.98443561 147.34701601 107.51953125 133.14453125 C109 132 109 132 111 132 C115.84346119 155.8136842 115.27542335 180.4153759 101.74609375 201.60546875 C93.25646552 213.24784483 93.25646552 213.24784483 88 215 C88.16113281 215.91007813 88.32226562 216.82015625 88.48828125 217.7578125 C89.24723599 223.11213741 89.19076406 228.47664582 89.1875 233.875 C89.18814453 234.97384521 89.18878906 236.07269043 89.18945312 237.20483398 C89.13135109 246.25356612 88.37671635 255.06363585 87 264 C87.30852905 263.18547363 87.30852905 263.18547363 87.62329102 262.35449219 C94.3561326 244.71134867 101.72293448 227.08390652 118 216 C121.4375 214.625 121.4375 214.625 124 214 C125.11446361 237.03224801 117.30063552 260.741606 102 278 C101.46890625 278.62519531 100.9378125 279.25039063 100.390625 279.89453125 C97.71712984 282.82611133 95.54950339 284.75348094 91.8828125 286.3984375 C85.16191118 289.50255533 85.16191118 289.50255533 80.95507812 295.26708984 C79.41927844 300.02434465 78.42740183 304.8763838 77.41015625 309.765625 C76.0863719 316.08409234 73.99977529 321.94544877 71.625 327.9375 C71.08685669 329.30491333 71.08685669 329.30491333 70.5378418 330.69995117 C69.70209804 332.80432575 68.85714927 334.90427332 68 337 C68.36641602 336.49791016 68.73283203 335.99582031 69.11035156 335.47851562 C80.06238416 320.64749254 94.48382317 304.13511792 113.421875 300.30859375 C114.27265625 300.20675781 115.1234375 300.10492188 116 300 C114.63991035 315.7430377 106.09681243 329.31247914 96 341 C95.43925781 341.67289062 94.87851562 342.34578125 94.30078125 343.0390625 C86.8217757 351.29045905 73.5561903 360.04931219 62.29296875 361.30078125 C58.38649335 361.84167784 55.32217012 362.40264732 52.70263672 365.56738281 C49.90061867 369.7828082 47.61040262 374.27962453 45.25146484 378.75195312 C43.32990724 382.20370934 41.08280085 385.37933153 38.75 388.5625 C38.33435791 389.13282959 37.91871582 389.70315918 37.49047852 390.29077148 C36.33447779 391.86603987 35.16753261 393.43325951 34 395 C33.35289062 395.87269531 32.70578125 396.74539063 32.0390625 397.64453125 C30.70201905 399.43667165 29.35293322 401.21982471 28 403 C28.680625 402.443125 29.36125 401.88625 30.0625 401.3125 C45.89293901 388.8502395 63.43674431 380.75164046 84 382 C75.44025879 400.72738961 57.02175035 413.83812959 38.2734375 420.921875 C31.80669977 423.05173134 26.6587114 424.12205253 19.89794922 423.91894531 C11.66692571 423.77557544 5.97718533 424.48546347 -0.125 430.25 C-1.80587497 431.90169923 -3.46819634 433.57024691 -5.12646484 435.24462891 C-8.61321859 438.51147272 -12.53710678 441.19128049 -16.4375 443.9375 C-17.55632568 444.73365723 -17.55632568 444.73365723 -18.69775391 445.54589844 C-20.11674831 446.55395512 -21.53757021 447.55944565 -22.96044922 448.56201172 C-25.98389832 450.69369896 -28.99131452 452.84754122 -32 455 C-30.97261719 454.66226562 -29.94523438 454.32453125 -28.88671875 453.9765625 C-8.31725901 447.3028934 11.10114515 445.37858064 32 452 C28.18571454 461.31253737 14.62774768 466.30108264 6 470 C-15.86266118 477.80728915 -36.99321722 476.49344991 -58 467 C-58 466.34 -58 465.68 -58 465 C-58.66 465 -59.32 465 -60 465 C-60 464.34 -60 463.68 -60 463 C-60.99 462.67 -61.98 462.34 -63 462 C-63 461.34 -63 460.68 -63 460 C-62.34 460 -61.68 460 -61 460 C-61.04640625 458.9584375 -61.0928125 457.916875 -61.140625 456.84375 C-61.98272467 429.74664137 -50.23412529 406.64403527 -32.04296875 387.1328125 C-31.36878906 386.42898438 -30.69460938 385.72515625 -30 385 C-29.39800781 384.35804688 -28.79601562 383.71609375 -28.17578125 383.0546875 C-26.83182694 381.65541304 -25.42296482 380.31884545 -24 379 C-23.34 379 -22.68 379 -22 379 C-17.36979806 398.63205624 -22.84819438 421.56121456 -33.21875 438.390625 C-35.58469742 441.85653044 -38.14019649 444.93094258 -41 448 C-34.52247057 444.65146283 -28.81771479 440.79374925 -23.125 436.25 C-22.34705078 435.63672852 -21.56910156 435.02345703 -20.76757812 434.39160156 C-10.55616496 426.56730011 -10.55616496 426.56730011 -1 418 C-0.94128052 415.8218241 -0.94128052 415.8218241 -1.3125 413.375 C-1.46138672 412.14910156 -1.46138672 412.14910156 -1.61328125 410.8984375 C-1.90413225 408.71852396 -2.20851301 406.54040895 -2.51953125 404.36328125 C-5.61752047 379.17695434 -1.41966054 352.64755915 14 332 C16.7103832 335.24136471 18.13944318 338.4957618 19.625 342.4375 C20.05039062 343.54996094 20.47578125 344.66242188 20.9140625 345.80859375 C23.37095923 353.02904207 23.21853548 359.99921553 23.25 367.5625 C23.270625 368.77486328 23.29125 369.98722656 23.3125 371.23632812 C23.34702128 379.28410114 22.28809813 386.29828567 20 394 C19.65962593 395.33155337 19.32342023 396.66422747 19 398 C26.60483711 388.71827424 33.52560027 379.15705855 39.80810547 368.92626953 C40.6040284 367.63994591 41.42640442 366.36962751 42.27392578 365.11669922 C43.61918648 363.12101965 43.61918648 363.12101965 45 360 C44.5649316 357.44606816 44.5649316 357.44606816 43 355 C42.44551368 353.74442324 41.90648535 352.48196189 41.37890625 351.21484375 C41.0845166 350.52503418 40.79012695 349.83522461 40.48681641 349.12451172 C31.07606519 326.85786898 27.17412862 299.2862127 36.1015625 276.14453125 C36.39804687 275.43683594 36.69453125 274.72914063 37 274 C48.74976548 282.52673953 54.4725306 299.22814681 57 313 C57.35257629 316.66356319 57.50325631 320.32232593 57.625 324 C57.66367187 324.96550781 57.70234375 325.93101562 57.7421875 326.92578125 C57.83556941 329.2836744 57.92134329 331.64157756 58 334 C62.26777256 323.81800454 66.31967066 313.6228357 69.5625 303.0625 C69.95719482 301.81291504 69.95719482 301.81291504 70.35986328 300.53808594 C72.110359 294.79117797 72.110359 294.79117797 71 289 C69.70616781 287.40989294 69.70616781 287.40989294 68 286.0625 C53.37891395 272.190445 42.56347006 246.67145915 41.92578125 226.67236328 C41.90210741 224.13482317 41.91241437 221.60000812 41.9375 219.0625 C41.94201172 218.18787109 41.94652344 217.31324219 41.95117188 216.41210938 C41.96285166 214.27470953 41.98078311 212.13734537 42 210 C46.44726764 211.43355147 49.5112382 213.85984242 52.875 217 C53.66716919 217.73911621 53.66716919 217.73911621 54.4753418 218.49316406 C65.77013407 229.30094749 72.68611782 243.81926355 76 259 C77.86704894 257.13295106 77.48461542 254.01880666 77.71875 251.5078125 C77.78155151 250.84723846 77.84435303 250.18666443 77.90905762 249.506073 C78.11022387 247.37941816 78.30517102 245.25224384 78.5 243.125 C78.63110573 241.7291286 78.76261163 240.33329472 78.89453125 238.9375 C79.61436378 231.29333862 80.30981087 223.64688952 81 216 C79.85688354 215.57001709 79.85688354 215.57001709 78.69067383 215.13134766 C75.29066668 213.70174661 72.56589791 211.63523556 69.6875 209.375 C69.11281982 208.92552002 68.53813965 208.47604004 67.94604492 208.01293945 C49.75149295 193.5817182 31.34698882 169.20233336 28.34765625 145.53515625 C28.23292969 144.36855469 28.11820313 143.20195312 28 142 C43.27580539 143.89216925 54.65843732 154.53496271 64.25 165.75 C69.49094172 172.5621255 73.17094512 180.34189025 77 188 C76.82871582 187.03811768 76.65743164 186.07623535 76.48095703 185.08520508 C75.83457913 181.45298735 75.19020837 177.82041576 74.54638672 174.18774414 C74.26957461 172.62742838 73.99224686 171.06720398 73.71435547 169.50708008 C72.02497998 160.02035239 70.40852418 150.53325272 69 141 C68.08105957 140.70359619 67.16211914 140.40719238 66.21533203 140.10180664 C39.98015106 131.11172527 17.00319612 107.82484098 4.25390625 83.6953125 C1 76.74504249 1 76.74504249 1 73 C19.0204606 73.90102303 35.05516408 85.09583348 47 98 C50.24238475 101.82902649 53.13522672 105.88266352 56 110 C56.996521 111.33593551 57.99593326 112.66972643 59 114 C53.89221376 102.14159037 48.78361452 90.30192785 43.1796875 78.66796875 C42 76 42 76 42 74 C40.92685547 73.63261719 40.92685547 73.63261719 39.83203125 73.2578125 C34.51103891 70.89455797 30.36016675 66.79439053 26 63 C25.28199219 62.37996094 24.56398438 61.75992188 23.82421875 61.12109375 C10.57039267 48.82345552 1.20786958 28.96318868 0 11 C-0.07278865 7.33145199 -0.06069408 3.66861992 0 0 Z " fill="#FDC128" transform="translate(663,147)"/>
<path d="M0 0 C1.01815852 19.68439815 -4.20408755 38.61111749 -17.10546875 53.9296875 C-22.73150713 60.07772944 -28.15638794 65.50269238 -35.125 70.125 C-42.63018804 75.65816159 -45.58557198 82.63762449 -49 91 C-49.43151367 92.04671875 -49.86302734 93.0934375 -50.30761719 94.171875 C-53.27972514 101.41910274 -56.16942366 108.69641412 -59 116 C-58.5555957 115.27699707 -58.11119141 114.55399414 -57.65332031 113.80908203 C-45.34482273 94.0753137 -28.39854031 80.13284677 -6.25 72.75 C-3.22796323 72.0526069 -1.82489857 71.87004057 1 73 C-4.87267073 88.03759626 -13.31075524 100.00087804 -24 112 C-24.59425781 112.66773438 -25.18851562 113.33546875 -25.80078125 114.0234375 C-37.1456124 126.0157404 -52.98807545 136.71109164 -69 141 C-69.17088135 142.13574463 -69.17088135 142.13574463 -69.34521484 143.29443359 C-70.7853555 152.77070242 -72.3631576 162.2218378 -73.97363281 171.67041016 C-74.31010968 173.64709329 -74.64338629 175.62432035 -74.9765625 177.6015625 C-75.17330566 178.75994629 -75.37004883 179.91833008 -75.57275391 181.11181641 C-76.07316826 184.00801516 -76.07316826 184.00801516 -76 187 C-75.43152344 185.87722656 -74.86304688 184.75445312 -74.27734375 183.59765625 C-70.13686898 175.52589446 -66.13562502 167.76526339 -60 161 C-59.34773438 160.25621094 -58.69546875 159.51242187 -58.0234375 158.74609375 C-49.82603405 149.93761113 -39.8196891 143.56137732 -28 141 C-31.07148494 167.56136406 -47.57607092 190.5365206 -67 208 C-75.85398981 215 -75.85398981 215 -79 215 C-79.24261781 225.55387476 -78.90384927 235.9740384 -78.0625 246.5 C-77.97564941 247.60400146 -77.88879883 248.70800293 -77.79931641 249.84545898 C-77.55034468 255.09015448 -77.55034468 255.09015448 -76 260 C-75.731875 259.030625 -75.46375 258.06125 -75.1875 257.0625 C-69.40139268 236.93029487 -60.70313427 219.92940356 -42 209 C-41.67 209 -41.34 209 -41 209 C-39.8478176 235.54286856 -47.80065868 263.13206235 -66 283 C-66.99 283.86625 -67.98 284.7325 -69 285.625 C-71.37874868 288.44976406 -71.32408467 290.11626017 -71.22705078 293.72119141 C-70.82444694 297.76194868 -69.6610524 301.51604534 -68.4375 305.375 C-68.17372559 306.2319043 -67.90995117 307.08880859 -67.63818359 307.97167969 C-64.85559439 316.81431009 -61.5019255 325.42131859 -58 334 C-57.97421875 332.741875 -57.9484375 331.48375 -57.921875 330.1875 C-57.58963127 318.94419568 -56.35863853 308.74039443 -53 298 C-52.72414063 297.09121094 -52.44828125 296.18242187 -52.1640625 295.24609375 C-49.41843374 287.39964092 -43.99115608 277.66077072 -37 273 C-32.99289294 283.81918905 -31.62788687 294.23785248 -31.6875 305.75 C-31.69313965 306.89452637 -31.6987793 308.03905273 -31.70458984 309.21826172 C-31.93450062 325.28242333 -35.66904916 340.56524289 -43.5 354.6875 C-45.32578816 357.77187309 -45.32578816 357.77187309 -44.36328125 360.25 C-38.97692274 371.11531918 -29.17217424 390.41391288 -18 396 C-18.45375 394.865625 -18.9075 393.73125 -19.375 392.5625 C-22.75806011 384.10484972 -23.35895875 375.78486 -23.3125 366.75 C-23.30831055 365.64333984 -23.30412109 364.53667969 -23.29980469 363.39648438 C-23.14170387 351.96613141 -21.22541853 342.26516229 -16 332 C-11.99582232 333.33472589 -11.05483608 335.80009674 -9.125 339.3125 C-8.77348877 339.94333496 -8.42197754 340.57416992 -8.05981445 341.22412109 C6.44938991 367.73830175 4.94658584 392.33745624 -1 421 C-3.31 421 -5.62 421 -8 421 C-8 421.66 -8 422.32 -8 423 C-31.90953306 423.83701072 -31.90953306 423.83701072 -43 419 C-44.010625 418.57589844 -45.02125 418.15179687 -46.0625 417.71484375 C-53.66972914 414.23143143 -59.81342124 409.59028201 -66 404 C-67.19109375 402.93265625 -67.19109375 402.93265625 -68.40625 401.84375 C-74.31401218 396.25970081 -78.84352496 389.97653576 -83 383 C-83 382.67 -83 382.34 -83 382 C-61.6699206 380.81682148 -44.33086687 388.80968445 -28 402 C-28.35843994 401.52328857 -28.71687988 401.04657715 -29.08618164 400.55541992 C-30.72619458 398.37182653 -32.36360434 396.18630553 -34 394 C-34.52835449 393.29439941 -35.05670898 392.58879883 -35.60107422 391.86181641 C-37.22282617 389.68563645 -38.8319786 387.50067798 -40.4375 385.3125 C-41.3042334 384.14436768 -41.3042334 384.14436768 -42.18847656 382.95263672 C-45.57274636 378.29854915 -48.03022983 373.92013907 -50.25 368.625 C-52.22672331 364.64700815 -52.22672331 364.64700815 -55.765625 362.16748047 C-59.37839637 361.03762759 -63.04482814 360.41426146 -66.7734375 359.796875 C-80.99536332 357.40865289 -93.66596403 344.94810395 -101.83886719 333.72460938 C-108.55204234 323.75365283 -112.58146857 312.4389321 -116 301 C-114 300 -114 300 -111.19921875 300.6796875 C-92.04553231 307.19918477 -79.80615709 320.0530613 -68 336 C-68.44730469 334.89785156 -68.89460938 333.79570312 -69.35546875 332.66015625 C-72.48759177 324.83984021 -75.4462764 317.02687341 -77.8125 308.9375 C-78.02269775 308.22883789 -78.23289551 307.52017578 -78.44946289 306.79003906 C-79.50435706 303.12242677 -80.20095828 299.59723055 -80.625 295.8125 C-81.21686921 292.91400034 -81.70624856 292.20462398 -84.17578125 290.484375 C-86.07428383 289.50692813 -87.98971977 288.56190265 -89.91796875 287.64453125 C-104.47839526 279.87527959 -114.33599812 263.50251414 -119.29296875 248.203125 C-121.8308704 239.51745437 -123.15601595 231.64569279 -123.0625 222.625 C-123.05798828 221.79355469 -123.05347656 220.96210938 -123.04882812 220.10546875 C-123.03713164 218.07028103 -123.01919935 216.03513077 -123 214 C-111.76170065 216.99687983 -103.74780641 227.48006877 -98.04296875 237.15234375 C-93.88375211 244.68882055 -90.71809619 252.84571144 -88 261 C-88.10828125 259.16115234 -88.10828125 259.16115234 -88.21875 257.28515625 C-88.31321985 255.54430975 -88.40690265 253.80342044 -88.5 252.0625 C-88.55349609 251.13405273 -88.60699219 250.20560547 -88.66210938 249.24902344 C-88.93376848 243.92344665 -88.9929424 238.68384961 -88.75 233.35546875 C-87.81088207 222.25983001 -87.81088207 222.25983001 -90.71875 211.875 C-92.95840337 209.70705218 -92.95840337 209.70705218 -95.48828125 207.91796875 C-106.19572997 199.74167431 -111.18156422 181.86259657 -113 169 C-113.23718365 164.60599313 -113.23090149 160.21231898 -113.25 155.8125 C-113.270625 154.64396484 -113.29125 153.47542969 -113.3125 152.27148438 C-113.34625323 144.70654219 -112.41843063 138.17413038 -110 131 C-95.92678836 142.17368176 -89.96562109 157.2329309 -87.5078125 174.6484375 C-87.19683271 177.86314875 -87.19683271 177.86314875 -86 180 C-85.83395264 179.17387207 -85.66790527 178.34774414 -85.49682617 177.49658203 C-84.86873177 174.38334272 -84.23639185 171.27100221 -83.60131836 168.15917969 C-83.32915014 166.82130025 -83.05859599 165.48309127 -82.78979492 164.14453125 C-81.35486331 157.00461085 -79.89324394 150.0141472 -77.4465332 143.14404297 C-76.43542742 138.28918734 -78.6424316 134.44856146 -80.875 130.25 C-89.73722395 112.92934648 -91.58358364 90.11707287 -85.8125 71.4375 C-83.79888898 65.36883236 -81.19735568 59.53754792 -78 54 C-74.42451965 55.19182678 -73.97810121 56.41965494 -72.34570312 59.67382812 C-72.04599609 60.29708984 -71.74628906 60.92035156 -71.4375 61.5625 C-71.13392578 62.15869141 -70.83035156 62.75488281 -70.51757812 63.36914062 C-65.8345024 72.88833377 -65.7415309 81.51754258 -65.875 92 C-65.88505022 93.36067049 -65.89417246 94.72134817 -65.90234375 96.08203125 C-65.9257918 99.38820647 -65.95861144 102.6940088 -66 106 C-65.69819824 105.33581055 -65.39639648 104.67162109 -65.08544922 103.98730469 C-63.68426309 100.90715248 -62.27960111 97.82859634 -60.875 94.75 C-60.37234619 93.64350098 -59.86969238 92.53700195 -59.35180664 91.39697266 C-56.86643058 85.95426798 -54.31750134 80.6178952 -51.4375 75.375 C-48.77550549 70.20226068 -48.1827749 65.31083224 -47.5390625 59.57421875 C-45.15963115 43.79755434 -36.46471668 29.69031413 -26 18 C-25.45988281 17.36578125 -24.91976562 16.7315625 -24.36328125 16.078125 C-19.6840786 10.93925257 -7.20148755 0 0 0 Z " fill="#229BDB" transform="translate(361,147)"/>
<path d="M0 0 C3.47123247 2.03137147 5.70220109 4.10660326 7 8 C9.4713338 32.30144908 -10.26937208 58.90131905 -24.44921875 76.92578125 C-29.57697189 83.10578389 -34.96420021 89.06798823 -40.7421875 94.6484375 C-45.47466295 99.57741712 -45.36801679 105.89839167 -45.26953125 112.3984375 C-44.92299712 115.74324523 -43.82102323 118.19258918 -42 121 C-33.93850866 120.87203982 -29.75207018 118.58258008 -24 113 C-19.13895162 107.97382046 -16.18603388 102.44447689 -13.25 96.1875 C-6.81826176 82.70053067 2.86056315 73.24699967 17.04296875 67.83984375 C22.68636489 66.23702979 27.97680628 66.19072251 33.4375 68.375 C35.30651854 69.56023127 37.15855343 70.77236895 39 72 C39.556875 71.484375 40.11375 70.96875 40.6875 70.4375 C43 69 43 69 45.625 69.1875 C48 70 48 70 50 72 C49.77737346 77.38279177 47.43990366 81.19567976 44.75 85.6875 C35.60819422 100.86758868 35.60819422 100.86758868 33 118 C34.07402305 119.2666955 34.07402305 119.2666955 36.5625 119.4375 C43.38031543 118.56977804 48.3330519 113.20326782 52.47729492 107.98461914 C58.22855458 100.48870928 61.87582532 92.96990961 65.1875 84.125 C66.02794861 81.89570688 66.87530563 79.66900261 67.73046875 77.4453125 C68.09551514 76.47094238 68.46056152 75.49657227 68.83666992 74.49267578 C69.97995939 72.04294116 70.86447661 70.63461481 73 69 C76.14485925 68.60689259 78.13281671 68.52444787 80.9375 70.0625 C82.67701533 73.23455736 81.78276159 75.53348437 81 79 C80.07980602 82.03037704 79.07409446 85.02090782 78 88 C78.43828125 87.45472656 78.8765625 86.90945313 79.328125 86.34765625 C85.89908594 78.53462342 94.59503761 69.51225649 105.0625 67.62890625 C109.20203823 67.48702692 110.57145538 67.65351712 113.9375 70.375 C117.187398 74.51123381 117.1751172 76.74648403 117 82 C116.68551152 84.0030497 116.35525982 86.00377818 116 88 C117.01707031 86.91332031 117.01707031 86.91332031 118.0546875 85.8046875 C132.45244215 70.73496818 132.45244215 70.73496818 142.0859375 69.796875 C146.8735888 69.69883436 150.18279249 69.76115726 154 73 C156.22406485 75.85951195 156.4757561 78.96464003 156.3828125 82.54296875 C155.36775764 89.05796369 152.25898362 95.22343071 149.5546875 101.1875 C146.7284933 107.51817502 145.421158 112.05389603 146 119 C152.46062914 119.52178356 155.37275977 117.17120682 160.3203125 113.31640625 C167.33173566 107.2555113 170.68897524 100.90086588 173.72509766 92.24536133 C180.42582082 73.19143706 180.42582082 73.19143706 186 69 C191.92993631 68.36464968 191.92993631 68.36464968 195 70.1875 C196.42775452 72.77530507 195.73372681 74.17866405 195 77 C194.3257701 78.62300354 193.59568772 80.22359396 192.8203125 81.80078125 C192.38589844 82.69603516 191.95148438 83.59128906 191.50390625 84.51367188 C191.04886719 85.43728516 190.59382812 86.36089844 190.125 87.3125 C183.99283672 99.30910105 183.99283672 99.30910105 181.3125 112.375 C181.21388672 113.90253906 181.21388672 113.90253906 181.11328125 115.4609375 C181.04582333 116.97292537 181 118.48650805 181 120 C189.0224871 120 193.40086248 116.52969085 199 111 C206.05876444 103.12282808 210.18721582 94.78016109 214 85 C215.0638007 82.40824179 216.15469403 79.82856765 217.25 77.25 C217.72953125 76.10015625 218.2090625 74.9503125 218.703125 73.765625 C220 71 220 71 222 69 C226.05261287 68.65509678 227.54754176 68.69836118 231 71 C230.60983685 78.80326294 228.24226342 84.92923365 225 92 C225.4626123 91.51644043 225.92522461 91.03288086 226.40185547 90.53466797 C228.54846898 88.30378987 230.71149544 86.08949625 232.875 83.875 C233.60203125 83.11445312 234.3290625 82.35390625 235.078125 81.5703125 C241.6613103 74.87163272 249.15522657 68.37708216 258.875 67.75 C262.68388494 67.80601301 264.99409625 68.52454985 268 71 C270.58328593 74.44438125 270.19314932 77.81939025 270 82 C269.1171875 85.5078125 269.1171875 85.5078125 267.875 89.125 C267.65489258 89.77025635 267.43478516 90.4155127 267.20800781 91.08032227 C265.65385694 95.50596738 263.78803391 99.70882578 261.75 103.9375 C259.08010822 109.49635161 258 113.83638865 258 120 C266.6195636 118.58952596 272.65302279 114.20470585 278.125 107.4375 C280.64198588 103.87637986 282.49537736 100.04564026 284.375 96.125 C291.09209646 82.14763562 300.57141672 72.64090009 315 67 C319.80709708 65.39763431 324.58430934 64.89897092 329.296875 67.046875 C332.16233931 68.82471782 334.61285835 70.61285835 337 73 C339.33882138 72.70764733 341.67284 72.37400786 344 72 C344.66 72.33 345.32 72.66 346 73 C345.79021538 78.87396922 344.48017914 83.69203302 342.3125 89.125 C338.71501365 98.42948637 335.90904325 107.92702966 333.125 117.5 C332.62294041 119.20979542 332.1203388 120.91943178 331.6171875 122.62890625 C330.40523298 126.75080636 329.20052512 130.87475725 328 135 C329.07636719 134.98195313 330.15273438 134.96390625 331.26171875 134.9453125 C336.11320391 135.01628511 340.47555002 135.47555002 344 139 C343.625 142.625 343.625 142.625 343 146 C338.54629322 146.95627638 335.09182255 146.90623315 330.625 146.0625 C329.56539062 145.86785156 328.50578125 145.67320312 327.4140625 145.47265625 C326.61742187 145.31667969 325.82078125 145.16070313 325 145 C324.67 146.155 324.34 147.31 324 148.5 C317.79269822 166.97619404 306.85401182 185.08679163 289 194 C281.80155983 196.84837337 273.8969326 197.25258548 266.5 194.875 C262.5385779 191.90393342 259.5964594 188.78937819 258 184 C257.10433991 175.22253116 260.90586647 167.56057582 266.328125 160.86328125 C277.81014609 148.06672971 296.12297703 139.12817074 313.16064453 136.69091797 C315.18211237 136.15480138 315.18211237 136.15480138 316.09667969 134.08227539 C316.36899414 133.26235107 316.64130859 132.44242676 316.921875 131.59765625 C317.22480469 130.70755859 317.52773438 129.81746094 317.83984375 128.90039062 C318.29037109 127.49563477 318.29037109 127.49563477 318.75 126.0625 C319.06582031 125.12986328 319.38164063 124.19722656 319.70703125 123.23632812 C321.36623563 118.71199074 321.36623563 118.71199074 322 114 C321.43345703 114.74443359 321.43345703 114.74443359 320.85546875 115.50390625 C314.74450403 123.04601025 305.79131774 130.1349871 296 132 C291.20197532 132.26290546 287.39525723 131.69961821 283.5625 128.6875 C280.36692382 125.33604206 279 123.63114734 279 119 C277.83984375 119.92232422 277.83984375 119.92232422 276.65625 120.86328125 C262.11730875 132.14535571 262.11730875 132.14535571 252 131 C248.4613006 129.34860695 247.18929847 128.28394771 245 125 C243.35452548 114.4309906 246.74885957 106.35250894 251 97 C254.50077098 89.31649349 254.50077098 89.31649349 255 81 C246.30633574 81.80425969 240.18296923 88.3942747 234.5 94.625 C233.31057428 96.06483113 232.14724645 97.52634034 231 99 C230.39720215 99.76908691 230.39720215 99.76908691 229.78222656 100.55371094 C223.31196769 108.87666628 217.78384104 117.4597741 212.77734375 126.734375 C211 130 211 130 209 133 C207.125 133.3984375 207.125 133.3984375 205 133.375 C204.29875 133.38273438 203.5975 133.39046875 202.875 133.3984375 C201 133 201 133 199 130 C199.0234375 127.73828125 199.0234375 127.73828125 199.375 125.3125 C199.48585938 124.50425781 199.59671875 123.69601562 199.7109375 122.86328125 C199.80632812 122.24839844 199.90171875 121.63351562 200 121 C199.29037109 121.68835938 199.29037109 121.68835938 198.56640625 122.390625 C192.74587158 127.79135503 187.28286263 131.41927286 179.3125 132.5 C175.22973548 131.88373366 173.15023384 130.64906028 170 128 C167.85453353 125.0407359 166.81315643 122.52119113 166 119 C165.35933594 119.54269531 164.71867188 120.08539062 164.05859375 120.64453125 C156.70676573 126.72540241 151.22785136 130.71115347 141.375 130.42578125 C137.3941913 129.71211653 135.69320873 127.96943527 133 125 C130.598065 117.79419501 132.14506756 111.26113766 134.8125 104.375 C135.07353516 103.6634375 135.33457031 102.951875 135.60351562 102.21875 C136.85395795 98.847187 138.19224216 95.53812714 139.65625 92.25390625 C140.78413126 89.52272866 141.4326861 87.46737846 141.6875 84.5625 C141.8421875 82.7990625 141.8421875 82.7990625 142 81 C132.11179639 81.95078881 125.72584716 89.69866371 119.546875 96.83203125 C112.69421197 105.58954291 107.230468 115.36903937 102.3671875 125.3515625 C101 128 101 128 99 130 C96 129.8125 96 129.8125 93 129 C90.78702999 125.68054499 90.76890301 124.31168241 91.36767578 120.46582031 C92.72117761 115.18768577 95.1599957 110.30621644 97.4375 105.375 C98.43853556 103.17554159 99.43731007 100.97505243 100.43359375 98.7734375 C101.09959595 97.32590088 101.09959595 97.32590088 101.77905273 95.84912109 C103.65998584 91.45990107 105.2911707 87.44395029 105.125 82.625 C105.08375 81.42875 105.0425 80.2325 105 79 C94.90988158 79.99008377 88.32552444 89.32879147 82.11328125 96.71020508 C74.01293771 106.69118982 67.82056265 118.10152867 61.59375 129.3046875 C60 132 60 132 58 134 C55.20294498 134.3585968 53.65294594 134.46465455 51.3203125 132.8046875 C49.48617791 130.29767513 49.88014186 128.83900695 50.3125 125.8125 C50.43238281 124.91144531 50.55226563 124.01039063 50.67578125 123.08203125 C50.78277344 122.39496094 50.88976562 121.70789063 51 121 C50.50371094 121.47050781 50.00742187 121.94101562 49.49609375 122.42578125 C44.04398784 127.42268287 39.46515435 130.90866648 31.875 131.5625 C28 131 28 131 25.125 128.625 C22.23120981 124.57174506 21.6411348 119.8420031 21 115 C20.59910156 115.49628906 20.19820312 115.99257813 19.78515625 116.50390625 C13.91138386 123.52313085 6.84886678 131.24229491 -2.71875 132.30078125 C-12.55333654 132.34221911 -12.55333654 132.34221911 -16 129 C-17.54069096 126.41347577 -18.82265139 123.76907132 -20 121 C-20.72703125 121.68835938 -20.72703125 121.68835938 -21.46875 122.390625 C-28.69701389 129.00726656 -34.37912934 132.80065853 -44.44921875 132.3828125 C-49.69285509 131.59586555 -52.21609912 129.03813901 -55.3125 124.9375 C-61.50020159 114.16631575 -57.24522781 99.31262295 -54.22241211 88.02148438 C-34.29826833 16.75513163 -34.29826833 16.75513163 -10 1.0625 C-6.31733235 -0.24177813 -3.88142555 -0.55448936 0 0 Z " fill="#FE6778" transform="translate(617,692)"/>
<path d="M0 0 C2.96798207 1.79676045 5.42401242 3.84802485 7 7 C9.28271442 26.72917463 -4.43009781 45.43385921 -16.0078125 60.30078125 C-20.0984436 65.42789872 -24.5138334 70.21683979 -29 75 C-30.23578542 76.41089671 -31.46554841 77.82710526 -32.6875 79.25 C-35.4849822 82.4926872 -38.47212918 85.45407449 -41.6171875 88.359375 C-43.18536042 90.21991914 -43.59718588 91.62442954 -44 94 C-43.01773438 92.96552734 -43.01773438 92.96552734 -42.015625 91.91015625 C-22.10944027 71.41353383 -22.10944027 71.41353383 -9.375 69.4375 C-4.83075852 70.19487358 -3.2354137 71.7645863 0 75 C2.52227626 80.04455252 1.01561774 85.53295821 -0.625 90.625 C-2.72012185 96.52738629 -5.1862851 102.24916752 -7.73046875 107.96875 C-9.3811356 111.91003454 -10.1334983 114.99010212 -10.0625 119.25 C-10.0315625 121.10625 -10.0315625 121.10625 -10 123 C-2.54234945 123 1.74893497 118.96254497 7 114 C13.15484807 107.79068425 16.41137783 101.23138512 19.42578125 93.10546875 C21.1283332 88.5508924 23.12767984 84.1525361 25.1875 79.75 C25.52072266 79.02288818 25.85394531 78.29577637 26.19726562 77.54663086 C27.77458435 74.19562198 29.13348231 71.3793476 32 69 C35.14485925 68.60689259 37.13281671 68.52444787 39.9375 70.0625 C41.64871184 73.18294512 40.70252973 75.57733053 40 79 C38.95911158 81.67120405 37.67594845 84.19725273 36.375 86.75 C33.27223557 93.10132481 30.48657197 99.50711257 28 106.125 C27.69755371 106.90584961 27.39510742 107.68669922 27.08349609 108.49121094 C25.34685756 113.21380968 24.6797889 116.97001729 25 122 C36.44113771 120.33918969 43.84359324 114.21845579 50.83984375 105.2109375 C57.15054894 95.83046794 61.47683619 85.24822163 65.67578125 74.79296875 C66.88887526 72.23437815 67.73603892 70.67130111 70 69 C73.34192692 69.24453124 74.60543557 69.60543557 77 72 C76.71337117 78.99313787 74.45959921 85.28436705 72.21875 91.8671875 C71.84520386 92.98312286 71.47165771 94.09905823 71.08679199 95.24880981 C69.89821667 98.79327796 68.69908184 102.33407426 67.5 105.875 C66.6933532 108.27842536 65.88735663 110.68206905 65.08203125 113.0859375 C63.61115886 117.46464394 62.14007623 121.84326473 60.65820312 126.21826172 C60.36143677 127.09570038 60.06467041 127.97313904 59.75891113 128.87716675 C59 131 59 131 58 133 C58.66 132.67 59.32 132.34 60 132 C62.5132797 131.87606534 64.98670114 131.81484888 67.5 131.8125 C68.18964844 131.80025391 68.87929688 131.78800781 69.58984375 131.77539062 C71.39477494 131.77011305 73.19917842 131.87815542 75 132 C77 134 77 134 77.3125 137 C77.209375 137.99 77.10625 138.98 77 140 C73.29093854 142.47270764 71.04867129 142.32618187 66.625 142.5 C60.05428183 142.7313419 60.05428183 142.7313419 54 145 C52.4434099 147.35012052 52.4434099 147.35012052 51.38671875 150.2421875 C50.94739014 151.30324707 50.50806152 152.36430664 50.05541992 153.45751953 C49.60400635 154.58528809 49.15259277 155.71305664 48.6875 156.875 C44.86883653 165.98030076 41.13430781 174.20261319 35 182 C34.50242187 182.67546875 34.00484375 183.3509375 33.4921875 184.046875 C28.70433549 190.16904642 21.7031744 195.45936512 14 197 C7.16714404 197.76975075 2.32119008 197.36604072 -3.44140625 193.484375 C-6.28984537 190.77157584 -7.32355165 187.88186375 -7.5 184 C-7.21998084 175.00991123 -2.05578896 167.70820684 3.9375 161.375 C11.61408178 154.18401626 20.12398292 147.8179324 29.97265625 143.97265625 C39.91360335 140.42524221 39.91360335 140.42524221 46.5390625 132.7265625 C48.36452225 128.07205647 50 123.03607618 50 118 C49.38125 118.845625 48.7625 119.69125 48.125 120.5625 C42.74849353 127.0081981 34.20430757 133.13978405 25.74609375 134.3125 C21.95695607 134.51225685 19.55098825 134.27549412 16.125 132.5625 C13.21221036 129.05001837 12.1480207 125.36807877 11 121 C10.3709375 121.60328125 9.741875 122.2065625 9.09375 122.828125 C2.20972067 129.25598371 -3.04575753 134.0468988 -12.6875 134.5625 C-16.70780997 134.4175235 -17.77393717 134.16728649 -21.125 131.6875 C-24.20392292 127.27437715 -24.6891295 123.23895042 -24 118 C-21.49725404 108.79809353 -17.87482642 99.99896365 -14.13671875 91.2421875 C-13.07486282 88.21352625 -12.74311498 86.16625721 -13 83 C-21.28609301 83.21246392 -27.72676215 90.27483535 -33.19140625 95.94140625 C-42.46339327 106.49505023 -50.06230786 118.50383347 -56.08984375 131.171875 C-57 133 -57 133 -58 134 C-61.4375 134.1875 -61.4375 134.1875 -65 134 C-67 132 -67 132 -67.1953125 129.8359375 C-67.17210937 129.02382813 -67.14890625 128.21171875 -67.125 127.375 C-67.10695313 126.55773437 -67.08890625 125.74046875 -67.0703125 124.8984375 C-67.04710937 124.27195312 -67.02390625 123.64546875 -67 123 C-67.71285156 123.47050781 -68.42570313 123.94101562 -69.16015625 124.42578125 C-79.54500132 131.17662939 -88.34267969 135.27636843 -101 134 C-106.2458366 132.39662137 -110.20255135 129.81161168 -113 125 C-113.75 121.1875 -113.75 121.1875 -114 118 C-114.66 118 -115.32 118 -116 118 C-116.24105469 118.58652344 -116.48210937 119.17304687 -116.73046875 119.77734375 C-119.08100865 123.89259669 -123.22034992 126.26141143 -127 129 C-127.804375 129.61875 -128.60875 130.2375 -129.4375 130.875 C-133.53006474 132.67173574 -137.543366 133.19823578 -142 133 C-144.9375 131.75 -144.9375 131.75 -147 129 C-148.27763182 125.3852368 -149.20511421 121.74824193 -150 118 C-150.94359375 118.99580078 -150.94359375 118.99580078 -151.90625 120.01171875 C-159.08038819 127.41274987 -165.56544598 133.98852226 -176.3125 134.375 C-179.99656821 134.33119998 -182.53703224 134.21383544 -185.5 131.9375 C-188.29747543 128.65046636 -189.39263806 125.96700664 -191 122 C-191.81082031 122.60328125 -192.62164062 123.2065625 -193.45703125 123.828125 C-205.37291344 132.51712901 -216.01578827 136.79176288 -231 135 C-235.7410706 133.48926238 -238.81029395 130.84180627 -241.5 126.6875 C-245.65615437 116.79100685 -243.47276606 104.82051865 -239.6171875 95.2578125 C-237.00336326 89.99228251 -233.78791159 85.4799339 -230 81 C-229.4328125 80.32066406 -228.865625 79.64132812 -228.28125 78.94140625 C-223.18065958 73.34759836 -217.26076914 69.57144433 -209.6796875 68.5546875 C-200.4060512 68.23782066 -200.4060512 68.23782066 -196.3125 70.75 C-193.32130455 73.66035233 -192.16301279 75.63903277 -191.6640625 79.8046875 C-191.58415956 86.08505887 -191.53241924 90.20552309 -196 95 C-196.56332031 95.61101562 -197.12664062 96.22203125 -197.70703125 96.8515625 C-206.28470571 105.34723242 -217.80864044 109.94515958 -229 114 C-229.46233492 117.9760803 -229.30954571 119.56851204 -226.9375 122.875 C-223.16219034 125.60607507 -221.59999897 125.60327855 -217 125 C-209.59191778 123.50118403 -204.00094351 120.52094203 -198 116 C-196.4221875 114.8553125 -196.4221875 114.8553125 -194.8125 113.6875 C-189.8061657 108.90366945 -186.55458748 103.29399712 -183.625 97.0625 C-177.52555241 84.51283787 -167.71469662 75.465287 -155 70 C-149.54109828 68.18036609 -143.65266977 67.91153005 -138.27734375 70.1171875 C-136.11456775 71.33053568 -134.0392664 72.59013681 -132 74 C-131.56816406 73.51144531 -131.13632813 73.02289062 -130.69140625 72.51953125 C-129 71 -129 71 -125.9375 70.6875 C-123 71 -123 71 -121 73 C-121.21070028 78.86328017 -123.22371634 82.70988324 -126.1875 87.5625 C-135.40479988 103.22111129 -135.40479988 103.22111129 -137 121 C-133.85484426 121.56451513 -131.69181246 121.38221683 -128.87890625 119.828125 C-120.39838454 113.65512826 -114.96988067 105.80720651 -111.125 96.125 C-106.06650775 83.67017179 -97.88163361 73.7710015 -85.61328125 67.84765625 C-82.48281695 66.83224406 -79.7886992 66.66341938 -76.5 66.625 C-75.3965625 66.59664062 -74.293125 66.56828125 -73.15625 66.5390625 C-69.34355204 67.0958674 -67.73026467 68.33898117 -65 71 C-63.15669279 74.68661442 -63.64379062 78.96720094 -64 83 C-65.55903299 86.66372752 -67.45062465 89.12091893 -71 91 C-75.41025641 90.58974359 -75.41025641 90.58974359 -77 89 C-77.36809815 83.96932534 -76.32558098 79.80523104 -75 75 C-86.4991943 80.24524652 -93.23880346 87.32712326 -98.328125 99.0625 C-100.46340065 104.95706376 -102.10521477 110.71569743 -101 117 C-99.8410416 119.41869578 -98.87677904 121.12322096 -97 123 C-87.8947146 124.10202859 -81.25965625 121.47399452 -73.9375 116.25 C-72.6196881 115.17313457 -71.30780501 114.08899652 -70 113 C-69.35724121 112.4946875 -68.71448242 111.989375 -68.05224609 111.46875 C-61.79475691 105.99907979 -59.62569594 99.65349928 -57.32519531 91.89395142 C-56.22403132 88.19180393 -55.03344373 84.51811785 -53.85546875 80.83984375 C-53.61887543 80.09409592 -53.3822821 79.34834808 -53.13851929 78.58000183 C-33.17302553 16.02841232 -33.17302553 16.02841232 -10 1.0625 C-6.31733235 -0.24177813 -3.88142555 -0.55448936 0 0 Z " fill="#FE6778" transform="translate(383,690)"/>
<path d="M0 0 C18.20987705 6.87928689 32.58311048 21.51294008 40.92578125 38.93310547 C44.67947932 47.26937436 47.79930868 55.70808681 48.1484375 64.9140625 C48.88944696 71.70630132 52.26476973 77.48395914 55.3125 83.5 C56.47636701 85.84320068 57.63915058 88.18693986 58.80078125 90.53125 C59.35072754 91.63726562 59.90067383 92.74328125 60.46728516 93.8828125 C66 105.13507486 66 105.13507486 66 109 C66.33 108.67 66.66 108.34 67 108 C66.68384105 106.3299903 66.34723822 104.66382526 66 103 C64.90510219 86.09046455 65.8000491 70.71033816 75 56 C75.99 55.34 76.98 54.68 78 54 C89.07432796 76.20933717 92.62714856 98.52211096 84.828125 122.62109375 C81.54691732 131.54314303 81.54691732 131.54314303 78.625 135.375 C76.37642249 139.00731752 77.19241556 140.84791667 78 145 C78.73903122 147.68139209 79.50889104 150.33863086 80.3125 153 C83.46929548 163.82627113 85.24598 174.87484175 87 186 C87.06469482 185.4423999 87.12938965 184.8847998 87.19604492 184.31030273 C89.51707706 164.91524021 92.98443561 147.34701601 107.51953125 133.14453125 C109 132 109 132 111 132 C115.84346119 155.8136842 115.27542335 180.4153759 101.74609375 201.60546875 C93.25646552 213.24784483 93.25646552 213.24784483 88 215 C88 215.99 88 216.98 88 218 C85.69 218 83.38 218 81 218 C81 217.34 81 216.68 81 216 C80.30519531 215.76539063 79.61039063 215.53078125 78.89453125 215.2890625 C75.44870379 213.75448347 72.63414795 211.68882828 69.6875 209.375 C69.11281982 208.92552002 68.53813965 208.47604004 67.94604492 208.01293945 C49.75149295 193.5817182 31.34698882 169.20233336 28.34765625 145.53515625 C28.17556641 143.78525391 28.17556641 143.78525391 28 142 C43.27580539 143.89216925 54.65843732 154.53496271 64.25 165.75 C69.49094172 172.5621255 73.17094512 180.34189025 77 188 C76.82871582 187.03811768 76.65743164 186.07623535 76.48095703 185.08520508 C75.83457913 181.45298735 75.19020837 177.82041576 74.54638672 174.18774414 C74.26957461 172.62742838 73.99224686 171.06720398 73.71435547 169.50708008 C72.02497998 160.02035239 70.40852418 150.53325272 69 141 C68.08105957 140.70359619 67.16211914 140.40719238 66.21533203 140.10180664 C39.98015106 131.11172527 17.00319612 107.82484098 4.25390625 83.6953125 C1 76.74504249 1 76.74504249 1 73 C19.0204606 73.90102303 35.05516408 85.09583348 47 98 C50.24238475 101.82902649 53.13522672 105.88266352 56 110 C56.996521 111.33593551 57.99593326 112.66972643 59 114 C53.89221376 102.14159037 48.78361452 90.30192785 43.1796875 78.66796875 C42 76 42 76 42 74 C40.92685547 73.63261719 40.92685547 73.63261719 39.83203125 73.2578125 C34.51103891 70.89455797 30.36016675 66.79439053 26 63 C25.28199219 62.37996094 24.56398438 61.75992188 23.82421875 61.12109375 C10.57039267 48.82345552 1.20786958 28.96318868 0 11 C-0.07278865 7.33145199 -0.06069408 3.66861992 0 0 Z " fill="#84C631" transform="translate(663,147)"/>
<path d="M0 0 C6.44462743 5.11001242 10.21877775 10.87347798 11.3203125 19.08984375 C11.66463784 27.95169076 10.06730451 34.77325154 5.84375 42.53515625 C5.4209375 43.31246094 4.998125 44.08976563 4.5625 44.890625 C-5.55035424 61.50040013 -21.77903164 71.60265257 -40.15625 76.53515625 C-41.01605469 76.76847656 -41.87585938 77.00179687 -42.76171875 77.2421875 C-47.95823255 78.45209607 -53.16324794 78.77695765 -58.47265625 79.08203125 C-59.58308289 79.14849854 -59.58308289 79.14849854 -60.71594238 79.21630859 C-62.52926141 79.32456645 -64.34274073 79.43013345 -66.15625 79.53515625 C-66.47376221 80.52322266 -66.79127441 81.51128906 -67.1184082 82.52929688 C-68.30738508 86.22751458 -69.49890665 89.92490841 -70.69116211 93.62207031 C-71.20486761 95.21625089 -71.71790115 96.81064818 -72.23022461 98.40527344 C-72.97068569 100.709571 -73.7136345 103.01305433 -74.45703125 105.31640625 C-74.68215897 106.01882446 -74.90728668 106.72124268 -75.13923645 107.44494629 C-79.47768462 120.85659087 -79.47768462 120.85659087 -82.15625 123.53515625 C-88.61778846 123.07361779 -88.61778846 123.07361779 -91.15625 120.53515625 C-91.70402361 114.70710521 -90.34290869 109.98749494 -88.55078125 104.53515625 C-88.13784569 103.24421806 -88.13784569 103.24421806 -87.71656799 101.92720032 C-86.81390053 99.12533396 -85.89330853 96.32987025 -84.96875 93.53515625 C-84.49698334 92.09721207 -84.49698334 92.09721207 -84.01568604 90.63021851 C-76.69763231 68.39516375 -68.02754501 47.06542175 -57.71875 26.03515625 C-57.24679199 25.06747314 -56.77483398 24.09979004 -56.28857422 23.1027832 C-53.5787524 17.74793339 -50.70096019 12.56506741 -46.15625 8.53515625 C-43.0873222 7.82145211 -41.98840994 8.01864319 -39.34375 9.66015625 C-37.51956096 12.54045474 -37.75851191 14.11460865 -38.15625 17.53515625 C-39.70019814 21.10799315 -41.62650276 24.45667042 -43.53125 27.84765625 C-48.20080194 36.44563902 -52.25426677 45.11975342 -55.84375 54.22265625 C-56.2651123 55.29104736 -56.68647461 56.35943848 -57.12060547 57.46020508 C-59.43641049 63.40302306 -59.43641049 63.40302306 -61.15625 69.53515625 C-41.31705191 66.61273545 -24.20855552 60.62108144 -10.15625 45.53515625 C-4.40393281 37.75821397 -0.79213507 29.33657461 -2.15625 19.53515625 C-3.87485527 14.2771531 -6.34595547 10.42133297 -11.15625 7.53515625 C-17.38559818 4.8934911 -23.05327728 4.04577542 -29.78125 4.16015625 C-30.65007812 4.16958252 -31.51890625 4.17900879 -32.4140625 4.1887207 C-49.75855439 4.58885558 -67.65344203 9.57139968 -80.515625 21.7734375 C-84.07699964 25.64025851 -87.4734428 29.48673466 -89.15625 34.53515625 C-88.91048958 38.54924317 -87.7727608 41.8710651 -86.15625 45.53515625 C-88.15625 47.53515625 -88.15625 47.53515625 -91.53125 47.91015625 C-95.15625 47.53515625 -95.15625 47.53515625 -97.53125 45.72265625 C-100.94069371 41.13302048 -100.92558562 36.01952901 -100.15625 30.53515625 C-95.36949598 17.21549289 -83.27277586 7.06612419 -70.89453125 0.9140625 C-49.96026633 -8.16122424 -20.09358563 -13.65053371 0 0 Z " fill="#FE6778" transform="translate(155.15625,704.46484375)"/>
<path d="M0 0 C1.28519531 -0.01417969 2.57039062 -0.02835938 3.89453125 -0.04296875 C7.1875 0.1875 7.1875 0.1875 10.1875 2.1875 C10.375 5.3125 10.375 5.3125 10.1875 8.1875 C3.81340121 11.40683499 -2.60350457 12.34088864 -9.625 13.375 C-10.76904297 13.55224609 -11.91308594 13.72949219 -13.09179688 13.91210938 C-21.4187681 15.1875 -21.4187681 15.1875 -23.8125 15.1875 C-24.19921875 16.44820312 -24.19921875 16.44820312 -24.59375 17.734375 C-25.90591477 21.45217517 -27.56977432 24.91106871 -29.3125 28.4375 C-34.9238866 40.03021102 -39.30826523 52.1331112 -43.8125 64.1875 C-43.03011963 64.18226318 -42.24773926 64.17702637 -41.44165039 64.17163086 C-37.91944167 64.15092894 -34.3972457 64.13786162 -30.875 64.125 C-29.64330078 64.11662109 -28.41160156 64.10824219 -27.14257812 64.09960938 C-25.97275391 64.09638672 -24.80292969 64.09316406 -23.59765625 64.08984375 C-21.97162476 64.08198853 -21.97162476 64.08198853 -20.31274414 64.07397461 C-17.8125 64.1875 -17.8125 64.1875 -16.8125 65.1875 C-16.625 68.125 -16.625 68.125 -16.8125 71.1875 C-19.8853482 74.2603482 -23.16160293 74.29687483 -27.3671875 74.65234375 C-28.22957031 74.73033203 -29.09195313 74.80832031 -29.98046875 74.88867188 C-31.77706725 75.04551778 -33.57394553 75.19919304 -35.37109375 75.34960938 C-36.23605469 75.42888672 -37.10101562 75.50816406 -37.9921875 75.58984375 C-38.77319824 75.65679443 -39.55420898 75.72374512 -40.35888672 75.79272461 C-43.5095719 76.29965575 -45.92570767 76.76192957 -48.8125 78.1875 C-50.15731374 80.76175212 -51.00034365 82.8498312 -51.8125 85.58984375 C-52.05441071 86.33566208 -52.29632141 87.08148041 -52.54556274 87.84989929 C-53.32405166 90.26831977 -54.06821952 92.69585824 -54.8125 95.125 C-55.33809712 96.7765918 -55.86593084 98.4274735 -56.39599609 100.07763672 C-57.89705434 104.77212794 -59.35835638 109.47830764 -60.8125 114.1875 C-61.7700388 117.26311462 -62.72876348 120.33833291 -63.69140625 123.41235352 C-64.17438042 124.96605741 -64.64891084 126.52242187 -65.11328125 128.08178711 C-66.59863332 132.97363332 -66.59863332 132.97363332 -68.8125 135.1875 C-72.3125 135.4375 -72.3125 135.4375 -75.8125 135.1875 C-77.8125 133.1875 -77.8125 133.1875 -78.14257812 129.74023438 C-77.99656763 124.30729988 -76.26752144 119.44981627 -74.53125 114.34375 C-74.19830933 113.33405151 -73.86536865 112.32435303 -73.52233887 111.28405762 C-72.46347131 108.08140196 -71.38827801 104.88451009 -70.3125 101.6875 C-69.5887563 99.50817334 -68.8660884 97.32848909 -68.14453125 95.1484375 C-66.37961293 89.82390537 -64.60003924 84.50447842 -62.8125 79.1875 C-67.2675 79.6825 -67.2675 79.6825 -71.8125 80.1875 C-70.73750109 75.88750437 -69.9085441 74.2835441 -66.8125 71.1875 C-65.52640306 70.76465481 -64.22473515 70.38760053 -62.91455078 70.04663086 C-59.53546517 68.83214768 -58.14424854 67.76719905 -56.53076172 64.54907227 C-55.90526552 63.04587854 -55.31057993 61.52960835 -54.7421875 60.00390625 C-54.24780685 58.78778908 -54.24780685 58.78778908 -53.74343872 57.54710388 C-52.69713736 54.95814052 -51.69133899 52.35568404 -50.6875 49.75 C-49.67096405 47.18688758 -48.64621159 44.62718789 -47.61993408 42.06796265 C-46.95610847 40.41191391 -46.29553651 38.75455692 -45.6383667 37.09585571 C-43.04403652 30.59699508 -40.1135617 24.36239971 -36.8125 18.1875 C-50.88415355 22.39326749 -50.88415355 22.39326749 -63.8125 29.1875 C-64.8025 29.826875 -65.7925 30.46625 -66.8125 31.125 C-69.37639538 33.76901711 -69.51100215 35.56952574 -69.8125 39.1875 C-70.64008621 43.01508621 -70.64008621 43.01508621 -71.8125 44.1875 C-74.25 44.4375 -74.25 44.4375 -76.8125 44.1875 C-79.7989302 39.7078547 -79.40176265 35.43798128 -78.8125 30.1875 C-73.84160447 19.41722635 -62.32521425 14.22702723 -51.8125 10.1875 C-35.4660789 4.35480865 -17.38674346 0.08807874 0 0 Z " fill="#FE6778" transform="translate(578.8125,695.8125)"/>
<path d="M0 0 C20.01739624 0 20.01739624 0 25.13961792 4.96536255 C25.75354401 5.63679291 26.36747009 6.30822327 27 7 C28.31811765 8.24578105 29.63786409 9.48984097 30.95922852 10.73217773 C32.27093332 12.04419216 33.5773662 13.3614951 34.87890625 14.68359375 C35.57644516 15.38396255 36.27398407 16.08433136 36.99266052 16.80592346 C39.18741099 19.01173759 41.375047 21.22445145 43.5625 23.4375 C45.06268301 24.94773069 46.56333013 26.4575005 48.06445312 27.96679688 C51.71501352 31.63923402 55.35921739 35.31787016 59 39 C55.45641164 41.95194734 51.48393743 43.80271116 47.33203125 45.73046875 C46.57895187 46.08458328 45.8258725 46.43869781 45.04997253 46.80354309 C42.63946936 47.93582466 40.22607254 49.06177826 37.8125 50.1875 C36.24003668 50.92470866 34.66776922 51.66233526 33.09570312 52.40039062 C29.96732037 53.86865781 26.83700793 55.33270296 23.70556641 56.79443359 C20.49791373 58.29379262 17.29807622 59.80844464 14.10302734 61.33447266 C13.32070236 61.70687576 12.53837738 62.07927887 11.73234558 62.46296692 C10.24119086 63.1734397 8.75146573 63.88692294 7.26338196 64.60380554 C2.22365948 67 2.22365948 67 0 67 C0 44.89 0 22.78 0 0 Z " fill="#FDFBFB" transform="translate(516,432)"/>
<path d="M0 0 C2.74508442 1.78763776 3.37406118 2.97238978 5 6 C4.74744723 11.01597866 2.78572778 14.59605831 0.0625 18.6875 C-0.33718994 19.294729 -0.73687988 19.90195801 -1.14868164 20.52758789 C-8.36884727 31.22397382 -17.44467337 41.7102634 -30 46 C-33.02143183 45.6546935 -33.80601826 45.19398174 -36 43 C-37.38651698 32.70015959 -32.40901626 22.19266817 -26.52734375 13.96484375 C-26.02332031 13.31644531 -25.51929688 12.66804687 -25 12 C-24.38511719 11.17242188 -23.77023437 10.34484375 -23.13671875 9.4921875 C-17.41823378 2.82236408 -8.98234688 -2.56408107 0 0 Z " fill="#FDFBFB" transform="translate(944,768)"/>
<path d="M0 0 C1.5625 2.3125 1.5625 2.3125 1.41015625 4.51171875 C0.31005907 8.14660205 -1.4676953 11.22094703 -3.4375 14.4375 C-3.83904297 15.09693604 -4.24058594 15.75637207 -4.65429688 16.43579102 C-11.14915168 26.88100701 -20.27113431 40.16487533 -32.4375 44.3125 C-35.25 44.125 -35.25 44.125 -37.4375 43.3125 C-39.59010491 39.00729017 -38.83267268 34.70357873 -37.56640625 30.24609375 C-32.75090405 16.87320731 -24.95515216 6.35237759 -12.4375 -0.6875 C-8.06651 -2.23849645 -3.91196448 -2.7082831 0 0 Z " fill="#FDFAFB" transform="translate(648.4375,770.6875)"/>
<path d="M0 0 C2.4375 1.5 2.4375 1.5 4 3 C3.49729606 8.12915114 1.67492777 11.87758403 -1 16.1875 C-1.40154297 16.84242432 -1.80308594 17.49734863 -2.21679688 18.17211914 C-8.77246341 28.64354359 -17.82874006 41.75421165 -30 46 C-32.25 45.875 -32.25 45.875 -34 45 C-36.32609372 41.51085943 -36.17148657 39.71923247 -35.59765625 35.65625 C-32.61235558 22.38824703 -24.85731023 11.05604691 -14 3 C-9.50333666 0.22923441 -5.271402 -0.59676249 0 0 Z " fill="#FDFBFB" transform="translate(241,769)"/>
<path d="M0 0 C-4.71355461 16.35880718 -14.03273946 30.48990322 -28.94921875 39.12890625 C-32.57366317 40.66843217 -36.1504237 40.67684858 -40 40 C-42.625 37.9375 -42.625 37.9375 -44 35 C-44 27.679271 -40.32669741 23.28118834 -35.5625 18.125 C-27.36350176 10.19829322 -12.03665563 0 0 0 Z " fill="#FDFBFC" transform="translate(929,839)"/>
<path d="M0 0 C-0.11742567 24.95295493 -21.22519438 51.49016387 -36 70 C-37.45901918 67.08196163 -36.41939109 65.59551565 -35.41015625 62.53125 C-35.04188721 61.41105469 -34.67361816 60.29085937 -34.29418945 59.13671875 C-33.88773193 57.93660156 -33.48127441 56.73648438 -33.0625 55.5 C-32.65153076 54.27925781 -32.24056152 53.05851563 -31.81713867 51.80078125 C-28.43070383 41.91809305 -24.60799327 32.37287592 -20 23 C-19.48824219 21.948125 -18.97648438 20.89625 -18.44921875 19.8125 C-8.24027778 0 -8.24027778 0 0 0 Z " fill="#FDF9FA" transform="translate(615,702)"/>
<path d="M0 0 C1 3 1 3 0.23071289 5.10961914 C-0.1844458 5.91004639 -0.59960449 6.71047363 -1.02734375 7.53515625 C-1.71485718 8.8663147 -1.71485718 8.8663147 -2.41625977 10.22436523 C-2.91826904 11.16094971 -3.42027832 12.09753418 -3.9375 13.0625 C-4.44531006 14.01390869 -4.95312012 14.96531738 -5.47631836 15.94555664 C-11.04338158 26.17746217 -16.66829777 35.45253059 -28 40 C-32.3999699 40.35174178 -32.3999699 40.35174178 -34.8125 38.9375 C-36.74712676 35.78100371 -36.47758569 33.64159089 -36 30 C-29.90136998 15.53416744 -13.60192107 6.25688369 0 0 Z " fill="#FDFBFB" transform="translate(422,838)"/>
<path d="M0 0 C2.06269439 21.0394828 -17.80484045 42.23263104 -30.25 57.5 C-31.49651839 59.00289451 -32.74501941 60.50416454 -34 62 C-35.14768083 58.5569575 -34.85429736 57.86291219 -33.6640625 54.5625 C-33.34630859 53.67675293 -33.02855469 52.79100586 -32.70117188 51.87841797 C-32.34603516 50.92854004 -31.99089844 49.97866211 -31.625 49 C-31.26212891 48.02047363 -30.89925781 47.04094727 -30.52539062 46.03173828 C-13.13248451 0 -13.13248451 0 0 0 Z " fill="#FDF9FA" transform="translate(381,700)"/>
<path d="M0 0 C1 1 1 1 1.5 4.0625 C0.78513201 9.69208544 -1.82141927 12.32135661 -6 16 C-12.02592987 20.48971419 -17.60607336 22.80743119 -25 24 C-23.5740388 14.77222813 -17.22653324 6.68097411 -10 1 C-6.18499123 -0.83514079 -4.09376415 -1.25087238 0 0 Z " fill="#FDFAFB" transform="translate(180,769)"/>
<path d="M0 0 C3.9375 0.5 3.9375 0.5 5.9375 1.5625 C7.57263623 4.73057644 7.42009887 7.00115821 6.9375 10.5 C4.46256641 13.92123173 3.05486219 15.29477021 -1.125 16.0625 C-4.76943151 15.36463014 -5.97139337 14.55623277 -8.0625 11.5 C-8.69906938 7.76015491 -8.31834708 5.99037356 -6.5625 2.625 C-3.91778897 0.37699562 -3.29754139 0.13360205 0 0 Z " fill="#FE6576" transform="translate(817.0625,733.5)"/>
<path d="M0 0 C0.33 0 0.66 0 1 0 C0.98839844 1.27617188 0.97679687 2.55234375 0.96484375 3.8671875 C0.95546583 5.53645687 0.94636563 7.20572783 0.9375 8.875 C0.92912109 9.71675781 0.92074219 10.55851563 0.91210938 11.42578125 C0.90727539 12.63427734 0.90727539 12.63427734 0.90234375 13.8671875 C0.89710693 14.61081543 0.89187012 15.35444336 0.88647461 16.12060547 C0.88213364 18.09132568 0.88213364 18.09132568 2 20 C1.67 20.66 1.34 21.32 1 22 C1.99 22 2.98 22 4 22 C4.185625 22.61875 4.37125 23.2375 4.5625 23.875 C6.71437233 27.05602866 9.37533763 27.19451947 13 28 C13 28.66 13 29.32 13 30 C13.99 30.33 14.98 30.66 16 31 C10.72250715 30.46148032 6.74354436 29.22656164 2 27 C2 26.34 2 25.68 2 25 C1.34 25 0.68 25 0 25 C0 24.34 0 23.68 0 23 C-0.99 22.67 -1.98 22.34 -3 22 C-3 21.34 -3 20.68 -3 20 C-2.34 20 -1.68 20 -1 20 C-1.01160156 18.80761719 -1.02320313 17.61523438 -1.03515625 16.38671875 C-1.04453592 14.82031406 -1.05363593 13.25390769 -1.0625 11.6875 C-1.07506836 10.50897461 -1.07506836 10.50897461 -1.08789062 9.30664062 C-1.09111328 8.54931641 -1.09433594 7.79199219 -1.09765625 7.01171875 C-1.10289307 6.31522217 -1.10812988 5.61872559 -1.11352539 4.90112305 C-1 3 -1 3 0 0 Z " fill="#FCA325" transform="translate(603,587)"/>
<path d="M0 0 C0.33 0.66 0.66 1.32 1 2 C0.22265625 3.9453125 0.22265625 3.9453125 -0.9375 6.125 C-1.31777344 6.84945312 -1.69804688 7.57390625 -2.08984375 8.3203125 C-2.39019531 8.87460937 -2.69054687 9.42890625 -3 10 C-3.66 10 -4.32 10 -5 10 C-5.185625 11.36125 -5.185625 11.36125 -5.375 12.75 C-5.93083249 15.64032894 -6.6408334 17.45156262 -8 20 C-8.36784131 21.3242287 -8.71202981 22.65613912 -9 24 C-9.66 24 -10.32 24 -11 24 C-11.33 25.65 -11.66 27.3 -12 29 C-13.11563247 25.7133449 -12.93376327 24.06524143 -11.5234375 20.91796875 C-11.18183594 20.15033203 -10.84023438 19.38269531 -10.48828125 18.59179688 C-10.12089844 17.79837891 -9.75351562 17.00496094 -9.375 16.1875 C-9.03082031 15.40568359 -8.68664062 14.62386719 -8.33203125 13.81835938 C-6.03772503 8.75141373 -3.36811753 4.42582461 0 0 Z " fill="#FDA827" transform="translate(619,549)"/>
<path d="M0 0 C4.66008845 1.86403538 7.44962742 3.84739111 11 7.1875 C11.52819336 7.67710205 12.05638672 8.1667041 12.60058594 8.67114258 C16.28348119 12.15203938 19.31340849 15.68226364 22 20 C21.67 20.66 21.34 21.32 21 22 C20.5153125 21.35933594 20.030625 20.71867187 19.53125 20.05859375 C12.20214953 10.23273141 12.20214953 10.23273141 2 4 C1.67 7.63 1.34 11.26 1 15 C0.67 15 0.34 15 0 15 C0 10.05 0 5.1 0 0 Z " fill="#FBC111" transform="translate(705,357)"/>
<path d="M0 0 C0.99 0 1.98 0 3 0 C2.05313961 9.46860389 -1.5156799 16.78673993 -6 25 C-6.33 24.34 -6.66 23.68 -7 23 C-6.29296875 21.30078125 -6.29296875 21.30078125 -5.1875 19.3125 C-2.11044941 13.40413549 -0.37683096 8.65499305 -2 2 C-1.34 2 -0.68 2 0 2 C0 1.34 0 0.68 0 0 Z " fill="#FCC317" transform="translate(776,447)"/>
<path d="M0 0 C2.01115063 5.54709519 -0.8573244 10.82976803 -3 16 C-4.83988679 19.44698986 -6.83977024 22.74525382 -9 26 C-9.625 24.1875 -9.625 24.1875 -10 22 C-9.01 20.515 -9.01 20.515 -8 19 C-7.34 19 -6.68 19 -6 19 C-5.896875 17.948125 -5.79375 16.89625 -5.6875 15.8125 C-5.00302632 12.0167823 -4.00299535 10.20479256 -2 7 C-1.27833809 4.68308546 -0.59940471 2.35151077 0 0 Z " fill="#FDA822" transform="translate(638,560)"/>
<path d="M0 0 C4.14712661 2.96119392 6.77977701 6.24198832 9.375 10.5625 C9.74238281 11.13935547 10.10976563 11.71621094 10.48828125 12.31054688 C11.5234375 14.00390625 11.5234375 14.00390625 13 17 C12.67 17.99 12.34 18.98 12 20 C10.85072616 18.06453884 9.70569358 16.12655872 8.5625 14.1875 C7.92441406 13.10855469 7.28632812 12.02960938 6.62890625 10.91796875 C5 8 5 8 4 5 C2.35 5.33 0.7 5.66 -1 6 C-0.67 4.02 -0.34 2.04 0 0 Z " fill="#FCC114" transform="translate(700,421)"/>
<path d="M0 0 C2 2 2 2 2.23046875 5.265625 C2.21628906 6.58046875 2.20210937 7.8953125 2.1875 9.25 C2.18105469 10.55453125 2.17460938 11.8590625 2.16796875 13.203125 C2.01934003 16.56282529 1.63984932 19.7034963 1 23 C0.67 23 0.34 23 0 23 C-0.72526532 15.15597666 -1.21074074 7.80255144 0 0 Z " fill="#FCAA23" transform="translate(640,529)"/>
<path d="M0 0 C0.66 0.33 1.32 0.66 2 1 C-2.29 5.29 -6.58 9.58 -11 14 C-11.66 13.67 -12.32 13.34 -13 13 C-11.58791833 11.39179588 -10.17013964 9.78859292 -8.75 8.1875 C-7.96109375 7.29417969 -7.1721875 6.40085937 -6.359375 5.48046875 C-4.34120555 3.35871775 -2.40083295 1.65745577 0 0 Z " fill="#FE5B6D" transform="translate(162,763)"/>
<path d="M0 0 C-0.59578777 5.26621606 -1.81308796 9.94408019 -3.5625 14.9375 C-3.79646484 15.62134766 -4.03042969 16.30519531 -4.27148438 17.00976562 C-4.84211829 18.67508501 -5.42027098 20.33782493 -6 22 C-6.66 21.67 -7.32 21.34 -8 21 C-7.65066406 19.96359375 -7.30132812 18.9271875 -6.94140625 17.859375 C-6.48169068 16.48961023 -6.0220597 15.11981707 -5.5625 13.75 C-5.33240234 13.06808594 -5.10230469 12.38617188 -4.86523438 11.68359375 C-3.79196286 8.47933387 -2.73984392 5.29953381 -2 2 C-3.32 2.33 -4.64 2.66 -6 3 C-4.60722783 0.21445565 -3.01148006 0 0 0 Z " fill="#138FD8" transform="translate(333,288)"/>
<path d="M0 0 C2.31 0 4.62 0 7 0 C7 1.65 7 3.3 7 5 C6.67 4.34 6.34 3.68 6 3 C4.35 3 2.7 3 1 3 C1 6.63 1 10.26 1 14 C0.67 14 0.34 14 0 14 C0 9.38 0 4.76 0 0 Z " fill="#F3C013" transform="translate(744,365)"/>
<path d="M0 0 C0.33 0.66 0.66 1.32 1 2 C-2.72346836 6.42094803 -6.29521038 10.57833482 -11 14 C-11.66 13.67 -12.32 13.34 -13 13 C-12.48050781 12.56429687 -11.96101562 12.12859375 -11.42578125 11.6796875 C-7.16777334 8.04345894 -3.44527348 4.41425664 0 0 Z " fill="#FE5C6E" transform="translate(897,797)"/>
<path d="M0 0 C0.66 0.33 1.32 0.66 2 1 C1.50628906 1.54269531 1.01257813 2.08539063 0.50390625 2.64453125 C-0.13675781 3.35996094 -0.77742187 4.07539063 -1.4375 4.8125 C-2.07558594 5.52019531 -2.71367188 6.22789062 -3.37109375 6.95703125 C-5.19086012 8.99896152 -5.19086012 8.99896152 -6 12 C-7.65 12.33 -9.3 12.66 -11 13 C-7.61227103 8.30840284 -4.21814817 3.9700218 0 0 Z " fill="#FCC317" transform="translate(749,463)"/>
<path d="M0 0 C-0.33 0.66 -0.66 1.32 -1 2 C-5.82425944 3.47180796 -9.92477148 4.25376143 -15 4 C-10.77951468 -0.85355812 -6.02568966 -0.10042816 0 0 Z " fill="#FDAC36" transform="translate(651,598)"/>
<path d="M0 0 C0.66 0.33 1.32 0.66 2 1 C-1.95825209 5.82485166 -5.59160025 9.83410746 -11 13 C-9.46356148 9.31930113 -7.21849055 7.01224796 -4.375 4.25 C-3.55773437 3.45078125 -2.74046875 2.6515625 -1.8984375 1.828125 C-0.95871094 0.92320312 -0.95871094 0.92320312 0 0 Z " fill="#FE5568" transform="translate(477,299)"/>
<path d="M0 0 C4.56454251 0.54339792 7.9728176 1.79463821 12 4 C8.23375329 5.25541557 6.62811066 4.37061958 3 3 C2.34 3.99 1.68 4.98 1 6 C0.67 4.02 0.34 2.04 0 0 Z " fill="#77BF1F" transform="translate(691,289)"/>
<path d="M0 0 C0 3.72038015 -0.90324391 4.44902879 -3.3125 7.1875 C-3.92738281 7.90292969 -4.54226563 8.61835937 -5.17578125 9.35546875 C-7 11 -7 11 -10 11 C-6.7 7.37 -3.4 3.74 0 0 Z " fill="#FE5A6C" transform="translate(397,796)"/>
<path d="M0 0 C1.13199353 0.9080162 2.25532363 1.82683826 3.375 2.75 C4.00148437 3.26046875 4.62796875 3.7709375 5.2734375 4.296875 C7 6 7 6 9 10 C6.36 8.02 3.72 6.04 1 4 C0.34 5.32 -0.32 6.64 -1 8 C-1.125 2.25 -1.125 2.25 0 0 Z " fill="#108CD7" transform="translate(251,278)"/>
<path d="M0 0 C0.99 0 1.98 0 3 0 C3 0.99 3 1.98 3 3 C1.03125 4.60546875 1.03125 4.60546875 -1.5 6.1875 C-2.3353125 6.71730469 -3.170625 7.24710938 -4.03125 7.79296875 C-4.6809375 8.19128906 -5.330625 8.58960938 -6 9 C-4.36275636 5.59453323 -2.56852213 2.80202414 0 0 Z " fill="#FDF7E2" transform="translate(696,542)"/>
<path d="M0 0 C0.66 0.33 1.32 0.66 2 1 C-5.11389522 9.81548975 -5.11389522 9.81548975 -10 11 C-6.79239749 7.19364503 -3.59253891 3.45436433 0 0 Z " fill="#FE576A" transform="translate(393,846)"/>
<path d="M0 0 C2.49361571 1.20381448 4.68143083 2.45428722 7 4 C7.66 2.68 8.32 1.36 9 0 C9.33 2.31 9.66 4.62 10 7 C5.61308455 6.49381745 3.15608721 3.86917019 0 1 C0 0.67 0 0.34 0 0 Z " fill="#FC586B" transform="translate(633,415)"/>
<path d="M0 0 C1.32 0.33 2.64 0.66 4 1 C0.375 6.75 0.375 6.75 -3 9 C-2.01 6.03 -1.02 3.06 0 0 Z " fill="#FCF7E5" transform="translate(683,538)"/>
<path d="M0 0 C0.33 0.66 0.66 1.32 1 2 C0.00390625 4.3828125 0.00390625 4.3828125 -1.4375 7.125 C-1.91058594 8.03507813 -2.38367188 8.94515625 -2.87109375 9.8828125 C-3.24363281 10.58148437 -3.61617187 11.28015625 -4 12 C-4.99 11.67 -5.98 11.34 -7 11 C-4.69 7.37 -2.38 3.74 0 0 Z " fill="#FCC114" transform="translate(708,508)"/>
<path d="M0 0 C0.66 0.33 1.32 0.66 2 1 C1.09515208 2.15518918 0.1755794 3.29885406 -0.75 4.4375 C-1.26046875 5.07558594 -1.7709375 5.71367187 -2.296875 6.37109375 C-4.19667629 8.18810554 -5.43586908 8.60423197 -8 9 C-7.04270084 7.87411986 -6.08412105 6.7493285 -5.125 5.625 C-4.59132813 4.99851562 -4.05765625 4.37203125 -3.5078125 3.7265625 C-2.38567993 2.44163349 -1.20628025 1.20628025 0 0 Z " fill="#FCC013" transform="translate(776,367)"/>
<path d="M0 0 C0.99 0 1.98 0 3 0 C3.33 3.63 3.66 7.26 4 11 C3.34 10.67 2.68 10.34 2 10 C2 9.34 2 8.68 2 8 C1.34 8 0.68 8 0 8 C0 5.36 0 2.72 0 0 Z " fill="#8CC93E" transform="translate(708,208)"/>
<path d="M0 0 C-0.33 1.65 -0.66 3.3 -1 5 C-1.33 3.68 -1.66 2.36 -2 1 C-6.455 1.495 -6.455 1.495 -11 2 C-10.67 1.34 -10.34 0.68 -10 0 C-6.35526801 -0.89093449 -3.57257469 -1.23666047 0 0 Z " fill="#FD596B" transform="translate(518,774)"/>
<path d="M0 0 C1 3 1 3 0.00390625 5.26171875 C-0.47175781 6.06222656 -0.94742187 6.86273437 -1.4375 7.6875 C-2.14712891 8.89986328 -2.14712891 8.89986328 -2.87109375 10.13671875 C-3.24363281 10.75160156 -3.61617188 11.36648438 -4 12 C-4.66 11.34 -5.32 10.68 -6 10 C-5.67 9.01 -5.34 8.02 -5 7 C-4.34 7.33 -3.68 7.66 -3 8 C-2.690625 7.05125 -2.38125 6.1025 -2.0625 5.125 C-1 2 -1 2 0 0 Z " fill="#FE586C" transform="translate(474,560)"/>
<path d="M0 0 C0.66 0.33 1.32 0.66 2 1 C-0.64 3.64 -3.28 6.28 -6 9 C-6.66 8.67 -7.32 8.34 -8 8 C-5.58443874 4.80800833 -3.31996462 2.25283313 0 0 Z " fill="#FE5D6F" transform="translate(707,768)"/>
<path d="M0 0 C0.66 0.33 1.32 0.66 2 1 C-0.64 2.98 -3.28 4.96 -6 7 C-6.66 6.67 -7.32 6.34 -8 6 C-3.375 1.125 -3.375 1.125 0 0 Z " fill="#FDA724" transform="translate(648,587)"/>
<path d="M0 0 C-8.42857143 3.42857143 -8.42857143 3.42857143 -13 3 C-12.01 2.67 -11.02 2.34 -10 2 C-10 1.34 -10 0.68 -10 0 C-2.25 -1.125 -2.25 -1.125 0 0 Z " fill="#FDA51D" transform="translate(667,617)"/>
<path d="M0 0 C-1.97420135 2.52259061 -2.96745642 2.9929808 -6.1875 3.6875 C-7.5796875 3.8421875 -7.5796875 3.8421875 -9 4 C-8.34 3.67 -7.68 3.34 -7 3 C-7 2.34 -7 1.68 -7 1 C-3.375 -1.125 -3.375 -1.125 0 0 Z " fill="#FDAA2B" transform="translate(677,612)"/>
<path d="M0 0 C0.66 0.33 1.32 0.66 2 1 C-3.14285714 6.57142857 -3.14285714 6.57142857 -7 7 C-4.66666667 4.66666667 -2.33333333 2.33333333 0 0 Z " fill="#FDA922" transform="translate(649,576)"/>
<path d="M0 0 C0 3.58912412 -0.66436554 4.10857029 -3 6.6875 C-3.556875 7.31011719 -4.11375 7.93273437 -4.6875 8.57421875 C-5.120625 9.04472656 -5.55375 9.51523437 -6 10 C-6.66 9.67 -7.32 9.34 -8 9 C-6.85459775 7.68712379 -5.70866567 6.37470979 -4.5625 5.0625 C-3.92441406 4.33160156 -3.28632813 3.60070312 -2.62890625 2.84765625 C-1.77458541 1.87860647 -0.91348825 0.91348825 0 0 Z " fill="#FE5B6E" transform="translate(451,261)"/>
<path d="M0 0 C0.33 0.99 0.66 1.98 1 3 C-0.98 4.98 -2.96 6.96 -5 9 C-5.66 8.67 -6.32 8.34 -7 8 C-4.69 5.36 -2.38 2.72 0 0 Z " fill="#FE586B" transform="translate(410,864)"/>
<path d="M0 0 C0 0.66 0 1.32 0 2 C-7.75 3.125 -7.75 3.125 -10 2 C-6.5980513 -0.09350689 -3.94727588 -0.17942163 0 0 Z " fill="#FCC21A" transform="translate(731,531)"/>
<path d="M0 0 C0 3 0 3 -1.3125 4.38671875 C-2.875 5.59114583 -4.4375 6.79557292 -6 8 C-6 5 -6 5 -4.6875 3.61328125 C-3.125 2.40885417 -1.5625 1.20442708 0 0 Z " fill="#FE6073" transform="translate(481,516)"/>
<path d="M0 0 C2.39763185 2.39763185 2.34280586 3.33273498 2.625 6.625 C2.69976562 7.44226563 2.77453125 8.25953125 2.8515625 9.1015625 C2.92503906 10.04128906 2.92503906 10.04128906 3 11 C1.91268966 8.90868131 1.02730625 7.11946484 0.5 4.8125 C0.335 4.214375 0.17 3.61625 0 3 C-0.66 2.67 -1.32 2.34 -2 2 C-1.34 1.34 -0.68 0.68 0 0 Z " fill="#1790D8" transform="translate(323,420)"/>
<path d="M0 0 C0.66 0.33 1.32 0.66 2 1 C2.4140625 3.06640625 2.4140625 3.06640625 2.625 5.5625 C2.69976563 6.38878906 2.77453125 7.21507812 2.8515625 8.06640625 C2.92503906 9.02353516 2.92503906 9.02353516 3 10 C1 9 1 9 -0.1875 6.6875 C-1.03624754 3.88010429 -0.99928333 2.698065 0 0 Z " fill="#EEF5E1" transform="translate(738,327)"/>
<path d="M0 0 C0.66 0.33 1.32 0.66 2 1 C0.02 3.97 -1.96 6.94 -4 10 C-4.33 9.34 -4.66 8.68 -5 8 C-2.51612903 1.25806452 -2.51612903 1.25806452 0 0 Z " fill="#DDF0FA" transform="translate(306,254)"/>
<path d="M0 0 C0.99 0.33 1.98 0.66 3 1 C1.02 3.31 -0.96 5.62 -3 8 C-3.33 7.01 -3.66 6.02 -4 5 C-2.0625 2.3125 -2.0625 2.3125 0 0 Z " fill="#FE5D6F" transform="translate(505,719)"/>
</svg>
